<svg xmlns="http://www.w3.org/2000/svg" width="145.822" height="144.723" viewBox="0 0 145.822 144.723"><g transform="translate(-24 -18)"><ellipse cx="72.911" cy="72.346" rx="72.911" ry="72.346" transform="translate(24 18)" fill="#fff" opacity="0.26"/><g transform="translate(27.391 33.826)"><g transform="translate(1.436 1.389)"><path d="M1063.826,147.775s24.591,8.394,42.04,4.037c-5.536-10.819-15.4-27.695-4.124-41.192l1.893-7.291s-13.559,7.021-17.242-12c-10.032-5.169-10.245-8.183-10.245-8.183l-6.091,1.524s-2.4,24.824,2.455,48.44c-2.077,10.2-4.458,9.225-4.458,9.225Z" transform="translate(-1023.611 -27.275)" fill="#f4828c"/><path d="M1099.754,101.317l-1.124,5.851s-13.319,13.191,3.354,42.632c12.922,0,24.35-9.839,24.35-9.839l-.774-5.02s-4.023-7.129-6.04-9.842-9.859-11.591.484-18.48c3.573-1.983,3.573-3.227,3.573-3.227S1106.824,94.1,1099.754,101.317Z" transform="translate(-1019.729 -25.263)" fill="#e7b97e"/><path d="M1153.115,92.173a19.088,19.088,0,0,0-13.18-4.77l-.938-.927s2.871-10.445,10.106-12.333c.735,4.024,2.86,5.471,2.86,5.471s2.261-4.476.35-8.953c2.238-10.524-.35-12.129-.35-12.129l-3.572-3.075s-2.329-12.4-10.321-11.587-12.762,7.314-12.762,7.314l-10.953-5.844s-4.3-8.433-11.508-7.472-5.72,0-5.72,0l-7.981-4.149,3.73,9.778-7.687-2.8-.723,1.843a32.216,32.216,0,0,1-13.135-6.217c-2.024,11.621,12.412,18.154,12.412,18.154l-4.476,2.34a26.088,26.088,0,0,0-25.253-11.248c-17.261,2.091-15.023,3.086-25.762-2.069,1.956,18.652,12.774,19.093,12.774,19.093s5.483,2.826,7.076,6.251c0,0-.509,13.079,18.652,12.5,2.057,15.43,14.04,8.241,14.04,8.241s.938,7.178,10.242,8.184c1.843,17.86,14.6,13.056,14.6,13.056s8.3-8.444,26.463,1.017l6.907,1.029,3.99-3.323,4.465,2.295,3.12-.452,2.532-6.6S1158.993,105.015,1153.115,92.173Z" transform="translate(-1028.25 -33.72)" fill="#f4828c"/><path d="M1063.795,78.063s-17.5,5.924-16.062,25.017c9.236-6.243,13.53-6.243,13.53-6.243v3.287l-.195,3.712,2.727,4.315-5.411,5.909.75,3.717-3.593,16.3-2.035,1.566s7.217,3.277,12.775-1.566c-2.962,8.921,0,12.975,0,12.975s11.757-5.685,7.257-22.244-.942-38.775-.942-38.775S1064.128,85.18,1063.795,78.063Z" transform="translate(-1025.72 -27.937)" fill="#e7b97e"/><path d="M1130.974,100.8l6.116,4.386s-3.345,8.349-5.929,11.09l3.621,3.728-1.2,5.409A48.038,48.038,0,0,0,1123.74,120c-5.843-2.383-2.528-11.38-.505-14.818A16.579,16.579,0,0,0,1130.974,100.8Z" transform="translate(-1016.227 -24.972)" fill="#e7b97e"/><path d="M1106.866,94.4l7.469-.6s3.838-7.263,9.493-6.674,7.218,3.245,7.218,3.245,6.3,11.313,11.819,8.366a6.65,6.65,0,0,0,2.417-5.577,14.381,14.381,0,0,0-8.073-11.295c-7.728-3.97-18.194-.562-22.7,2.352S1106.866,94.4,1106.866,94.4Z" transform="translate(-1017.998 -27.676)" fill="#fca7be"/><path d="M1120.995,67.752l3.595,6.443,2.048-6.262-.334-3.667Z" transform="translate(-1016.155 -29.737)" fill="#f9f6ef"/><path d="M1132.469,64.125l5.9,11.524,1.073-5.982-.722-2.971-4.389-2.413Z" transform="translate(-1014.659 -29.755)" fill="#f9f6ef"/><path d="M1117.936,93.586l4.449-7.27,1.466,1.925.056,5.491-5.971.96Z" transform="translate(-1016.554 -26.861)" fill="#f9f6ef"/><path d="M1088.07,66.035l1.8.683,14.234-4.8,5.6-4.371-9.533-8.065s-9.144,1.616-10.84,8.065S1088.07,66.035,1088.07,66.035Z" transform="translate(-1020.456 -31.665)" fill="#f9f6ef"/><path d="M1066.36,36.32s.705,13.068,12.412,18.154h3.9l4.351-6.058,5.722-4.541,6.669-1.338,7.934,1.907a8.278,8.278,0,0,0-7.934-6.638c-6.974-.484-6.389.483-6.389.483l-8.847-4.569,1.084,4.146,2.646,5.632-7.683-3.487-1.027,3.565S1071.408,40.937,1066.36,36.32Z" transform="translate(-1023.28 -33.72)" fill="#f9f6ef"/><g transform="translate(24.335 38.166)"><path d="M1075.665,122.038l3.494,3.493,3.328-3.328" transform="translate(-1046.402 -60.368)" fill="none" stroke="#d5767a" stroke-linecap="round" stroke-linejoin="round" stroke-width="2"/><path d="M1074.751,131.114l3.493,3.493,3.328-3.328" transform="translate(-1046.521 -59.185)" fill="none" stroke="#d5767a" stroke-linecap="round" stroke-linejoin="round" stroke-width="2"/><path d="M1071.03,136.911l2.071,4.486,4.273-1.973" transform="translate(-1047.006 -58.429)" fill="none" stroke="#d5767a" stroke-linecap="round" stroke-linejoin="round" stroke-width="2"/><path d="M1079.49,139.464l3.493,3.493,3.328-3.328" transform="translate(-1045.903 -58.096)" fill="none" stroke="#d5767a" stroke-linecap="round" stroke-linejoin="round" stroke-width="2"/><path d="M1085.943,132.659l3.494,3.493,3.328-3.328" transform="translate(-1045.061 -58.983)" fill="none" stroke="#d5767a" stroke-linecap="round" stroke-linejoin="round" stroke-width="2"/><path d="M1088.654,140.478l4.312,2.412,2.3-4.108" transform="translate(-1044.708 -58.185)" fill="none" stroke="#d5767a" stroke-linecap="round" stroke-linejoin="round" stroke-width="2"/><path d="M1073.328,112.946l3.493,3.493,3.328-3.328" transform="translate(-1046.706 -61.554)" fill="none" stroke="#d5767a" stroke-linecap="round" stroke-linejoin="round" stroke-width="2"/><path d="M1084.219,124.846l3.494,3.493,3.328-3.328" transform="translate(-1045.286 -60.002)" fill="none" stroke="#d5767a" stroke-linecap="round" stroke-linejoin="round" stroke-width="2"/><path d="M1084.219,116.922l3.494,3.493,3.328-3.328" transform="translate(-1045.286 -61.036)" fill="none" stroke="#d5767a" stroke-linecap="round" stroke-linejoin="round" stroke-width="2"/><path d="M1074.122,106.129l3.494,3.493,3.328-3.328" transform="translate(-1046.603 -62.443)" fill="none" stroke="#d5767a" stroke-linecap="round" stroke-linejoin="round" stroke-width="2"/><path d="M1073.328,98.649l3.493,3.493,3.328-3.328" transform="translate(-1046.706 -63.419)" fill="none" stroke="#d5767a" stroke-linecap="round" stroke-linejoin="round" stroke-width="2"/><path d="M1071.734,91.078l3.493,3.493,3.328-3.328" transform="translate(-1046.914 -64.406)" fill="none" stroke="#d5767a" stroke-linecap="round" stroke-linejoin="round" stroke-width="2"/><path d="M1083.679,100.826l1.111,4.814,4.586-1.058" transform="translate(-1045.357 -63.135)" fill="none" stroke="#d5767a" stroke-linecap="round" stroke-linejoin="round" stroke-width="2"/><path d="M1067.585,75.933l1.111,4.814,4.586-1.058" transform="translate(-1047.455 -66.381)" fill="none" stroke="#d5767a" stroke-linecap="round" stroke-linejoin="round" stroke-width="2"/><path d="M1074.62,72.191,1075.731,77l4.586-1.058" transform="translate(-1046.538 -66.869)" fill="none" stroke="#d5767a" stroke-linecap="round" stroke-linejoin="round" stroke-width="2"/><path d="M1079.988,82.362l1.111,4.814,4.586-1.058" transform="translate(-1045.838 -65.542)" fill="none" stroke="#d5767a" stroke-linecap="round" stroke-linejoin="round" stroke-width="2"/><path d="M1083.679,77.063l1.111,4.814,4.586-1.058" transform="translate(-1045.357 -66.234)" fill="none" stroke="#d5767a" stroke-linecap="round" stroke-linejoin="round" stroke-width="2"/><path d="M1088.77,84.934l1.111,4.814,4.586-1.058" transform="translate(-1044.693 -65.207)" fill="none" stroke="#d5767a" stroke-linecap="round" stroke-linejoin="round" stroke-width="2"/><path d="M1088.07,93.738l1.111,4.814,4.586-1.058" transform="translate(-1044.784 -64.059)" fill="none" stroke="#d5767a" stroke-linecap="round" stroke-linejoin="round" stroke-width="2"/><path d="M1057.858,73.166l4.938.133.127-4.705" transform="translate(-1048.724 -67.338)" fill="none" stroke="#d5767a" stroke-linecap="round" stroke-linejoin="round" stroke-width="2"/><path d="M1049.778,72.055l4.939.133.126-4.705" transform="translate(-1049.778 -67.483)" fill="none" stroke="#d5767a" stroke-linecap="round" stroke-linejoin="round" stroke-width="2"/><path d="M1090.144,72l2.884,4.012,3.822-2.747" transform="translate(-1044.513 -66.893)" fill="none" stroke="#d5767a" stroke-linecap="round" stroke-linejoin="round" stroke-width="2"/><path d="M1093.619,77.975l2.22,4.414,4.2-2.115" transform="translate(-1044.06 -66.115)" fill="none" stroke="#d5767a" stroke-linecap="round" stroke-linejoin="round" stroke-width="2"/><path d="M1084.556,109.556l3.494,3.493,3.328-3.328" transform="translate(-1045.242 -61.996)" fill="none" stroke="#d5767a" stroke-linecap="round" stroke-linejoin="round" stroke-width="2"/></g></g><g transform="translate(1.434 4.828)" opacity="0.15"><path d="M1130.094,90.978l-2.311-2.38-1.193,1.327a3.206,3.206,0,0,0-.135-1.763,1.754,1.754,0,0,0-1.635-1.245,1.782,1.782,0,0,0-1.636,1.245,2.369,2.369,0,0,0-.133,1.064,2.4,2.4,0,0,0,.139.549,1.705,1.705,0,0,0,1.238,1.692,1.844,1.844,0,0,0,.77.007l-1.958,2.179s8.165,10.6,14.979,10.8a68.651,68.651,0,0,0,2.535-6.6S1135.643,98.808,1130.094,90.978Z" transform="translate(-1015.887 -30.222)" fill="#745043"/><path d="M1109.386,81.29a27.71,27.71,0,0,0-6.186,6.29,9.9,9.9,0,0,0,.954-2.841,1.372,1.372,0,0,0,.9-1.107c.026-.156.04-.3.059-.451h0v-.012c.013-.113.035-.231.044-.34l.007-.014a4.722,4.722,0,0,0-.495-4.231,1.781,1.781,0,0,0-1.85-.786,1.735,1.735,0,0,0-2.214,2.038c.68,2.79.432,5.826-1.763,7.944-1.051,1.015-2.7,1.4-3.738,2.444a7.878,7.878,0,0,0-2.307,4.314c-.666,3.682.832,8.844,4.391,10.569a1.707,1.707,0,0,0,1.1.149c1.408,1.325,3.564-.956,2.232-2.562-1.216-1.466-2.618-3.113-2.95-5.051a7.334,7.334,0,0,1,.152-1.8,6.34,6.34,0,0,1,2.754-3.505,1.894,1.894,0,0,0,.244-.227,5,5,0,0,0-.281,1.942c.351,3.606.791,6.862,3.391,5.844a17.019,17.019,0,0,0,3.968-2.08s1.486-11.283,16.394-14.5a1.653,1.653,0,0,0,1.28,2.719c2.65-.129,5.122.107,7.046,2.115,1.579,1.648,2.539,3.932,3.583,5.929,1.7,3.242,3.24,5.444,6.888,6.46a1.7,1.7,0,0,0,.9-3.27c-4.7-1.308-5.7-7.756-8.665-11.151a9.9,9.9,0,0,0-6.961-3.433c.753-.075,1.524-.138,2.333-.174,2.091-7.065,10.095-12.333,10.095-12.333l-3.674-5.991a17.028,17.028,0,0,0-7.111.972l1.052.113-2.679,8.941-3.594-6.443.983-.916c-.384.181-.768.373-1.164.588a43.4,43.4,0,0,0-6.534,4.318C1113.5,75.3,1112.777,79.052,1109.386,81.29Zm-8.194,9.61a2.025,2.025,0,0,0-.1-.624c.016-.054.035-.107.045-.163a7.684,7.684,0,0,0,.974-.9A16.576,16.576,0,0,0,1101.192,90.9Z" transform="translate(-1019.85 -33.194)" fill="#745043"/><path d="M1069.577,85.417c-1.095-.3-3.2-.645-4.075-1.449-.986-.909-1.188-2.948-1.311-4.187-.147-1.486-2.372-2.541-3.159-.856-.063.135-.1.268-.154.4-.909-.632-2.294-.505-2.494.86-.436,2.981,1.184,4.948,3.111,7.03a13.092,13.092,0,0,0,6.388,4.248,1.7,1.7,0,0,0,2.1-1.668,1.684,1.684,0,0,0,.465-1.754A1.669,1.669,0,0,0,1069.577,85.417Z" transform="translate(-1024.328 -31.376)" fill="#745043"/><path d="M1068.322,95.686l-7-.577a1.528,1.528,0,0,0-1.546,2.1,1.57,1.57,0,0,0,.956,2.432,54.26,54.26,0,0,0,6.794,1.052,1.46,1.46,0,0,0,1.606-1.752A1.775,1.775,0,0,0,1068.322,95.686Z" transform="translate(-1024.17 -29.154)" fill="#745043"/><path d="M1128.769,140.379c-.5-.263-.988-.5-1.473-.721a1.754,1.754,0,0,0,1.853-2.113,17.194,17.194,0,0,0-9.23-12.2c-5.694-2.758-15.8-.773-19.225-7.3,1.245-3.149,3.4-6.027,4.945-9.163a20.221,20.221,0,0,1,13.719,1.823,1.737,1.737,0,0,0,2.441-.985c4.065-2.792,4.174-4.445,4.174-4.445L1114.248,101l-8.269,1.022-4.544,1.889-5.752,1.158-4.737-1.51-3.068-5.332-2.109-6.9s-8.207-1.464-10.245-8.183l-5.662,2.224-1.247,7.367s4.437.431,6.168-1.013c2.31,4.655,6.267,4.655,6.267,4.655s6.606,19.776,18.93,15.281a17.294,17.294,0,0,0,2.689-5.33s.13-.016.354-.04a1.611,1.611,0,0,0-.366,1.259c-2.562,5.941-7.09,10.057-6.155,17.513a53.806,53.806,0,0,0,1.141,6.091,1.7,1.7,0,0,0-.921,2.847,14.661,14.661,0,0,0,2.268,1.848,109.84,109.84,0,0,0,4.111,10.506,1.582,1.582,0,0,0,.562,2.285,5.374,5.374,0,0,1,.688.5c.112.246.221.491.332.736a1.351,1.351,0,0,0,1.427.864,6.2,6.2,0,0,0,1.156.855c1.916,1.046,3.629-1.882,1.711-2.929a8.578,8.578,0,0,1-1.814-1.481c-1.411-3.087-2.86-6.273-4.1-9.538a27.762,27.762,0,0,0,3.244.675c7,1.067,14.444,1.674,20.753,4.991C1128.988,144.322,1130.7,141.4,1128.769,140.379Zm-27.173-6.985a40.944,40.944,0,0,1-1.88-10.018c-.018-.367-.008-.726.009-1.082a18.931,18.931,0,0,0,8.062,3.857c2.709.71,5.552.688,8.248,1.4,5.376,1.411,8.667,5.636,9.843,10.9a1.589,1.589,0,0,0,.4.765,46.143,46.143,0,0,0-11.447-2.841C1110.693,135.722,1105.455,135.46,1101.6,133.394Z" transform="translate(-1022.984 -30.714)" fill="#745043"/><path d="M1081.462,49.848c1.933,1.008,3.65-1.918,1.713-2.929a11.429,11.429,0,0,1-4.291-3.782c-1.209-1.8-4.148-.109-2.929,1.711A14.959,14.959,0,0,0,1081.462,49.848Z" transform="translate(-1022.065 -36.031)" fill="#745043"/><path d="M1091.694,41.634a1.7,1.7,0,1,0,2.928-1.711,17.66,17.66,0,0,0-2.042-2.672,1.7,1.7,0,0,0-2.4,2.4A11.764,11.764,0,0,1,1091.694,41.634Z" transform="translate(-1020.235 -36.762)" fill="#745043"/><path d="M1063.1,69.4c2.1.454,4.477.615,6.407,1.668.7.382,1.1,1.178,1.861,1.552,3.625,1.788,7.4-3.08,4.562-5.982a1.787,1.787,0,0,0-1.167-.5c.785-4.025-6.045-11.354-8.04-13.2a19.355,19.355,0,0,0-11.9-5.4c-2.851-.161-5.644.608-8.492.661-1.467.027-2.935-.049-4.4-.142a1.322,1.322,0,0,0-.664-.343,20.825,20.825,0,0,1-4.522-1.286,1.977,1.977,0,0,0-1.684,0l-4.295-2.936c-1.336-.913-2.73.59-2.491,1.915a13.266,13.266,0,0,0,2.615,5.538,1.592,1.592,0,0,0,.147,1.31,22.414,22.414,0,0,0,6.284,7.351c2.165,1.6,6.618,2.454,9.161,4.114a1.312,1.312,0,0,0,.784,1.78l1.945.829a1.831,1.831,0,0,0,.872.128,14.406,14.406,0,0,0,5.7,1.653C1058.283,68.407,1060.645,68.866,1063.1,69.4Zm4.337-6.377c-.09-.085-.181-.171-.27-.257.009-.01.019-.019.029-.029.1.095.2.191.3.286C1067.472,63.02,1067.453,63.021,1067.435,63.02Z" transform="translate(-1028.248 -35.921)" fill="#745043"/><path d="M1119.081,87.21c-.76.762-1.5,1.544-2.2,2.358-.38.437-1.067,1.605-1.707,1.674a1.745,1.745,0,0,0-1.7,1.7,1.708,1.708,0,0,0,1.7,1.7c2.865-.309,4.427-3.141,6.31-5.026A1.7,1.7,0,0,0,1119.081,87.21Z" transform="translate(-1017.135 -30.248)" fill="#745043"/><path d="M1108.218,52.045c.115,1.3.339,2.533.4,3.275a1.761,1.761,0,0,0,2.111,1.614,1.652,1.652,0,0,0,1.615-1.229,9.5,9.5,0,0,1,.39-1.464c0-.008.011-.015.016-.024.074-.171.144-.366.21-.572a6.957,6.957,0,0,1,.961-1.6,1.972,1.972,0,0,0,.462-1.446,1.649,1.649,0,0,0-1.583-2.477,2.427,2.427,0,0,0-2.09-1.163,2.247,2.247,0,0,0-1.4.366c-.129-.241-.264-.479-.388-.725-.987-1.947-3.914-.233-2.929,1.713A33.182,33.182,0,0,0,1108.218,52.045Z" transform="translate(-1018.136 -35.59)" fill="#745043"/><path d="M1087.595,76.6a1.686,1.686,0,0,0,.485-.027c1.915.083,2.646-2.893.607-3.3-9.119-1.815-11.669-12.862-15.014-20.315a1.487,1.487,0,0,0-2.538-.309,1.464,1.464,0,0,0-1.34,2.027C1073.41,64.1,1075.74,75.492,1087.595,76.6Z" transform="translate(-1022.846 -34.764)" fill="#745043"/><path d="M1086,49.723a25.782,25.782,0,0,1,18.638,11.193,1.674,1.674,0,0,0,1.722.73c-4.066,3.753-11.053,5.758-16.022,5.609-2.183-.066-2.182,3.326,0,3.391a28.723,28.723,0,0,0,14.206-3.624,21.764,21.764,0,0,0-.787,5.237,1.655,1.655,0,0,0,2.492,1.439,1.463,1.463,0,0,0,1.63-1.207c.414-1.875.839-3.755,1.373-5.6a18.964,18.964,0,0,1,2.715-5.046,1.6,1.6,0,0,0-1.173-2.455,1.978,1.978,0,0,0-.865-.434,1.478,1.478,0,0,0-.276-1.96c-6.462-5.974-13.618-10.838-22.592-11.635a1.379,1.379,0,0,0-1.539.99C1083.857,46.634,1084.027,49.51,1086,49.723ZM1107.855,60a1.363,1.363,0,0,0-.044-.261,1.619,1.619,0,0,0,.2.062C1107.96,59.871,1107.9,59.935,1107.855,60Z" transform="translate(-1020.928 -35.642)" fill="#745043"/><path d="M1072.125,125.025a1.517,1.517,0,0,0-1.56-.368c-3.534,1.48-6.776,3.789-7.765,7.7a1.647,1.647,0,0,0,.048,1.017c-.165.2-.328.4-.494.595-1.392,1.663.995,4.074,2.4,2.4,2.547-3.042,4.923-6.129,8.009-8.658C1073.878,126.788,1073.2,125.439,1072.125,125.025Z" transform="translate(-1023.856 -25.312)" fill="#745043"/><path d="M1072.026,110.584c-2.258-5.782-12.282,7.761-14.024,9.59a1.644,1.644,0,0,0,.041,2.351q-1.893,2.433-3.6,5.007c-1.208,1.824,1.727,3.525,2.928,1.711a69.171,69.171,0,0,1,9.583-11.595C1068.464,116.19,1073.091,113.308,1072.026,110.584Z" transform="translate(-1024.87 -27.321)" fill="#745043"/><path d="M1132.625,103.174a1.7,1.7,0,0,0-3.391,0c.007,1.744-.779,3.36-1.1,5.057a20.794,20.794,0,0,0-.314,5.043c.121,2.17,3.514,2.184,3.391,0a17.284,17.284,0,0,1,.546-5.636A16.286,16.286,0,0,0,1132.625,103.174Z" transform="translate(-1015.268 -28.315)" fill="#745043"/><path d="M1132.886,119.91c-1.646-1.165-3.8-2.484-4.081-4.674a1.752,1.752,0,0,0-1.7-1.7,1.7,1.7,0,0,0-1.7,1.7c.465,3.638,2.92,5.592,5.76,7.6C1132.96,124.1,1134.655,121.161,1132.886,119.91Z" transform="translate(-1015.579 -26.75)" fill="#745043"/></g><path d="M1121.016,67.388l-.181.181V67.06Z" transform="translate(-1014.74 -27.983)" fill="#745043"/><path d="M1123.02,53.748a3.473,3.473,0,1,0-3.473-3.474A3.474,3.474,0,0,0,1123.02,53.748Z" transform="translate(-1014.908 -30.625)" fill="#704f43"/><path d="M1156.9,103.54c.01-.023.014-.049.023-.072a1.132,1.132,0,0,0,.071-.322c0-.02.012-.038.012-.059.121-6.138-1.71-10.754-5.444-13.717-3.325-2.639-7.594-3.533-11.386-3.691,1.084-2.762,5.229-7.082,8.482-9.979a16.383,16.383,0,0,1,1.382,5.808,1.146,1.146,0,0,0,1.977.754c3.921-4.134,2.049-10.063,1.413-11.721,1.7-4.636,1.785-8.492.231-11.45a9.025,9.025,0,0,0-4.615-4.131c-.5-4.658-3.285-12.3-11.028-12.3a15.173,15.173,0,0,0-3.874.483,14.192,14.192,0,0,0-8.743,7c-.758-.485-1.875-1.177-3.2-1.951l-.1-.059q-.59-.343-1.232-.7l-.234-.131q-.612-.341-1.261-.687c-.092-.05-.179-.1-.271-.146q-.712-.378-1.459-.754l-.147-.076q-.783-.392-1.593-.77c-.227-.106-.457-.206-.686-.31-.274-.123-.545-.25-.821-.369-1.085-1.895-6.409-9.935-16.819-6.7a24.913,24.913,0,0,0-8.866-4.955,1.146,1.146,0,0,0-1.374,1.483,36.414,36.414,0,0,0,4.141,8.3c-2.351-1.522-5.232-2.972-7.428-2.722a1.146,1.146,0,0,0-1.011,1.245,10.651,10.651,0,0,0,.21,1.311c-2.138-.7-6.061-2.531-11.11-7.283a1.147,1.147,0,0,0-1.9.549c-2.259,8.765,8.263,16.962,8.766,17.345l2.537,1.722a19.863,19.863,0,0,0-2.083,1.3,19.8,19.8,0,0,0-5.758-6.632c-9.48-6.457-22.211-4.268-28.328-3.216-.981.17-1.809.312-2.447.39a19.338,19.338,0,0,1-8.216-.735l-.064-.018a7.474,7.474,0,0,1-1.406-.562l-.1-.047h0a33.816,33.816,0,0,1-4.326-2.754,1.146,1.146,0,0,0-1.836.95c.138,4.543,2.508,10.114,2.62,10.376a19.666,19.666,0,0,0,2.948,4.935,19.307,19.307,0,0,0,7.446,5.267,18.317,18.317,0,0,1,4.667,2.742,6.632,6.632,0,0,1,1.234,1.371c.012.018.027.037.042.055a14.266,14.266,0,0,1,1.55,3.689c.808,2.554,1.725,5.449,5.159,7.835,4.692,3.242,10.988,3.172,13.7,2.958.006.167.017.354.029.545-3.723,1.616-18.639,9.26-17.438,27.418a1.146,1.146,0,0,0,1.954.735c6.122-6.135,10.838-6.9,12.64-6.936.083,1.407-.031,3.715-1.284,4.208a143.186,143.186,0,0,1-.339.228,1.1,1.1,0,0,0-.131.148,1.219,1.219,0,0,0-.1.115,1.016,1.016,0,0,0-.038.114c-.014.032-.042.054-.053.087a.847.847,0,0,0-.013.107,1.15,1.15,0,0,0-.031.269,1.217,1.217,0,0,0,.014.191,1.139,1.139,0,0,0,.086.263,1.206,1.206,0,0,0,.041.123,16.926,16.926,0,0,0,2.234,2.9c.485.535,1.088,1.2,1.067,1.462-.006.066-.085.434-1.121,1.256-3.508,2.777-5.745,4.853-5.839,4.941a1.14,1.14,0,0,0-.136.168c-.017.024-.038.044-.054.069a1.121,1.121,0,0,0-.147.367c-.006.026,0,.054-.008.081a1.141,1.141,0,0,0,0,.332c0,.021,0,.041,0,.062s.017.036.022.057.008.062.019.093a1.108,1.108,0,0,0,.074.138,1.122,1.122,0,0,0,.061.112,1.172,1.172,0,0,0,.171.192c.026.023.045.05.073.071a1.133,1.133,0,0,0,.313.174c.015.006.031,0,.047.009a1.093,1.093,0,0,0,.278.057c.536.028,1.649.286,1.923.781.207.375-.106,1.046-.312,1.412-2.151,3.842-2.673,12-2.692,12.3-.059.589-.441,2.4-1.375,2.982a1.615,1.615,0,0,1-1.56.014,1.146,1.146,0,0,0-.963,2.072,13.52,13.52,0,0,0,6.8,1.806,18.367,18.367,0,0,0,7.316-1.682,12.4,12.4,0,0,0,.037,10.928c-.268.217-.537.43-.8.634a1.147,1.147,0,0,0,.258,1.969,74.891,74.891,0,0,0,44.033,4.005h0c2.157-.454,4.29-1.007,6.342-1.64a74.208,74.208,0,0,0,18.623-8.684,1.146,1.146,0,0,0,.107-1.845c-.115-.095-.229-.19-.347-.285.25-6.368-5.874-12.319-7.232-13.558a23.2,23.2,0,0,0-3.733-7.115c-.808-1.03-.625-3.3.467-5.794,1.362-3.109,3.461-5.133,4.63-5.226a3.292,3.292,0,0,0,2.493-1.953,13.041,13.041,0,0,0,1.543.451,1.139,1.139,0,0,0-.361.4c-.17.313-4.1,7.723-1.732,12.928a7.982,7.982,0,0,0,5.926,4.387c4.535,1.031,5.995,3.156,6,3.165a1.15,1.15,0,0,0,.836.529,1.092,1.092,0,0,0,.136.008,1.149,1.149,0,0,0,.8-.326c.315-.309,3.069-3.1,2.55-5.883a4.37,4.37,0,0,0-2.9-3.176c-.552-.236-.783-.459-.814-.577-.126-.493.978-1.908,1.784-2.941,1.765-2.263,3.962-5.078,3.814-8.643a1.145,1.145,0,0,0-.365-.792c-.114-.106-.236-.217-.354-.324.8-.112,1.294-.183,1.294-.183a1.149,1.149,0,0,0,.894-.7l2.188-5.272a1.135,1.135,0,0,0,0-.885l-.085-.2a7.069,7.069,0,0,0,2.732-1.727l.036-.033c.009-.01.021-.018.031-.028A1.152,1.152,0,0,0,1156.9,103.54ZM1134.806,99.9c-.18.072-.355.15-.542.213-.023.008-.046.017-.07.024-.076.025-.154.046-.232.069a9.629,9.629,0,0,1-.959.226l-.093.017c-.073.012-.149.023-.225.033q-.485.073-1,.1c-.094.006-.185.015-.28.018-.051,0-.105,0-.156,0a36.142,36.142,0,0,0,3.272-5.108A8.7,8.7,0,0,1,1134.806,99.9Zm-6.344.563-.1-.008c-.451-.037-.879-.089-1.278-.138l-.835-.113c-.045-.008-.095-.014-.147-.019l-.112-.017c.99-1.381,3.306-4.21,6.27-5.286A42.317,42.317,0,0,1,1128.462,100.465Zm8.25-5.631a8.337,8.337,0,0,1,1.9.981c.1.07.191.155.291.228a8.346,8.346,0,0,1-1.647,2.281A11.122,11.122,0,0,0,1136.712,94.834Zm15.709,8.851q-.131.027-.265.047a5.175,5.175,0,0,1-3.714-.849,17.281,17.281,0,0,1-3.356-3.594,30.942,30.942,0,0,0-4.012-4.448,11.467,11.467,0,0,0-1.173-.918,9.6,9.6,0,0,0-4.415-1.691c-.06-.095-.11-.189-.173-.284a1.15,1.15,0,0,0-1.21-.477,1.135,1.135,0,0,0-.83.8c-.188.029-.374.052-.562.093-5.249,1.148-8.824,6.773-9.187,7.363l-.11-.02c-.348-.068-.668-.127-.978-.18h0a1.011,1.011,0,0,0-.141-.027l-.363-.058a1.309,1.309,0,0,0-.134-.017.486.486,0,0,0-.055-.007l-.083-.011-.278-.032h-.015l-.016,0-.027,0-.12-.012-.113-.011a1.278,1.278,0,0,0-.147-.015c-.212-.008-.428-.007-.656,0-.076,0-.152.007-.226.012s-.131,0-.2.01l-.139.02c-.046.006-.093.009-.139.016s-.1.019-.154.027c-.028,0-.052.007-.083.012a.862.862,0,0,0-.235.047l-.04.009-.11.028c-.068.016-.14.032-.2.049l-.031.01c-.077.023-.157.049-.235.073-.026.008-.049.012-.075.021,1.562-3.476,5.321-9.391,13.129-10.89.387-.077.794-.127,1.2-.179.227-.028.444-.069.677-.09.627-.057,1.272-.089,1.937-.089h.028c.04,0,.076.008.114.009a7.332,7.332,0,0,1,1.1.095c.136.021.265.062.4.09.258.057.516.114.764.194.133.043.261.1.392.148.24.09.478.184.708.294.127.06.248.127.371.192.222.118.441.239.652.371.125.078.249.161.371.244q.287.193.56.4.207.158.407.322t.419.359c.164.147.327.3.483.447.083.079.163.159.242.24.2.2.393.4.578.607l.068.076a23.126,23.126,0,0,1,2.845,4.033l.017.029c.064.116.115.213.164.3.017.033.041.075.055.1l.034.066c.033.063.064.125.084.165a9.7,9.7,0,0,0,2.27,3.946c.052.057.111.11.165.165q.249.254.527.5c.116.1.232.2.357.3.234.185.478.365.74.534.051.032.09.07.142.1.15.094.312.167.467.252.072.038.141.079.215.116q.307.154.625.288c.095.04.192.077.289.114C1152.153,103.578,1152.283,103.64,1152.421,103.685Zm-2.283-12.52c2.908,2.308,4.443,5.9,4.575,10.686h-.01c-.051-.006-.1-.018-.146-.025a8.255,8.255,0,0,1-.86-.164c-.116-.029-.223-.064-.333-.1-.208-.061-.413-.13-.612-.208-.108-.043-.217-.087-.321-.133a6.836,6.836,0,0,1-.7-.363c-.037-.023-.08-.042-.118-.064a6.941,6.941,0,0,1-.781-.573l-.107-.092a8,8,0,0,1-2.3-3.58l0-.016a1.253,1.253,0,0,0-.075-.211,22.392,22.392,0,0,0-6.875-8.25A16.282,16.282,0,0,1,1150.138,91.165ZM1137.8,85.67a35.094,35.094,0,0,0-6.826.878c-11.084,2.186-14.852,12.312-15.578,14.641l-.008,0-.01.007-.013.008c-.031.019-.059.044-.088.066s-.046.031-.065.047a9.979,9.979,0,0,1-.906.7c-1.084.743-2.578,1.5-3.423,1.122-.682-.3-1.091-1.581-1.124-3.51-.089-5.36,3.094-8.374,6.779-11.865A36.292,36.292,0,0,0,1122,81.744c.06-.09.136-.185.2-.277.15-.215.3-.43.481-.659.087-.111.187-.226.278-.34.194-.237.4-.479.618-.729.092-.1.187-.207.282-.312.254-.277.524-.56.807-.847.088-.088.173-.175.262-.263.367-.362.753-.728,1.162-1.1.018-.016.034-.032.051-.047.409-.367.847-.736,1.294-1.1.17-.138.345-.274.518-.41.289-.228.583-.454.885-.679.211-.157.422-.313.64-.467.32-.229.651-.453.985-.677.185-.124.368-.252.557-.373.362-.233.738-.453,1.112-.676,1.944,1.57,3.25,5.147,3.611,6.5a1.144,1.144,0,0,0,.983.844.922.922,0,0,0,.123.008,1.148,1.148,0,0,0,1.019-.621,20.1,20.1,0,0,0,1.97-10c.135-.033.271-.071.405-.1q.255-.056.509-.105.51-.1,1.011-.166c.183-.025.366-.049.547-.067.306-.033.609-.053.909-.068.2-.01.4-.019.6-.02.251,0,.5.007.743.017a28.945,28.945,0,0,1,3.063,4.541C1145.354,75.54,1138.932,81.448,1137.8,85.67Zm-.924-9.95a14.389,14.389,0,0,0-2.628-4.1q.332-.168.666-.326c.19-.09.381-.182.57-.267q.514-.231,1.033-.439c.16-.066.322-.129.483-.189.027-.011.055-.02.083-.031.17-.064.338-.122.508-.182A16.626,16.626,0,0,1,1136.875,75.72ZM1151.849,78a26.183,26.183,0,0,0-3.972-8.416c.055.018.114.029.171.047l.095.035c.347.12.686.258,1.02.409.068.031.136.061.2.093.306.146.6.31.9.483.082.047.163.093.238.138.263.164.518.345.772.53A11.627,11.627,0,0,1,1151.849,78Zm-54.558-31.9c.015-.007.031-.014.044-.021l.012,0c.048-.027.1-.049.15-.075.329-.176.667-.345,1.022-.5.1-.045.215-.083.32-.127.314-.128.632-.251.963-.362a17.894,17.894,0,0,1,2.334-.606l.048-.01a23.046,23.046,0,0,1,2.385-.338c.1-.009.206-.009.31-.014s.193-.011.294-.012a11.779,11.779,0,0,1,2.1.208c.075.014.151.033.225.049.322.062.651.132,1,.219.1.026.207.058.309.086.311.083.629.175.956.278.163.051.329.105.5.162.269.089.546.188.826.289.21.077.417.15.635.235.268.1.547.218.825.332.121.05.237.095.361.147a23.153,23.153,0,0,1,5.717,13.313C1112.229,50.233,1102.247,47.122,1097.291,46.1Zm23.472,11.5a24.339,24.339,0,0,0-3.479-9.507c3.017,1.562,5.628,3.172,6.972,4.031C1123.5,53.245,1122.2,55.2,1120.763,57.609ZM1110.487,42.7c-.061-.019-.116-.032-.176-.051-.355-.11-.7-.207-1.04-.3-.1-.025-.194-.055-.287-.079l-.077-.02-.118-.028c-.291-.067-.573-.124-.856-.181-.083-.016-.172-.041-.253-.055h-.008c-.225-.04-.437-.069-.651-.1l-.075-.011q-.639-.086-1.219-.114c-.079,0-.157,0-.235-.007a9.756,9.756,0,0,0-1.069.023c-.017,0-.036,0-.053,0-.683.062-1.333.151-1.968.253-.512-.563-1.465-1.566-2.724-2.73A11.073,11.073,0,0,1,1110.487,42.7Zm-13.905-3.063a1.152,1.152,0,0,0,.1.077c1.269,1.07,2.34,2.109,3.109,2.9a17.8,17.8,0,0,0-3.21,1.264c-2.225-.584-4.651-4.728-6.188-8.31A27.8,27.8,0,0,1,1096.582,39.634Zm-3.542,6.609c-.467.393-.931.825-1.394,1.281a6.069,6.069,0,0,1-5.6-4.132,1.063,1.063,0,0,0-.051-.118,10.773,10.773,0,0,1-.424-1.292C1087.782,42.511,1090.894,44.548,1093.04,46.244Zm-20.823-8.217c5.938,5.132,10.27,6.416,11.937,6.736a8.4,8.4,0,0,0,5.591,4.811l-.243.291c-.141.168-.281.331-.424.506s-.266.338-.4.506c-.557.707-1.122,1.45-1.7,2.269a5.355,5.355,0,0,0-.75-.055c-.073,0-.148.007-.222.009-.185,0-.372.015-.558.036-.1.011-.194.027-.293.043-.18.028-.36.062-.539.1-.1.023-.194.044-.294.07s-.171.045-.256.07l-3.715-2.52C1080.261,50.834,1072.294,44.635,1072.217,38.027Zm-31.276,23.619a17.14,17.14,0,0,1-6.682-4.7A17.431,17.431,0,0,1,1031.7,52.6a37.92,37.92,0,0,1-2.152-7.093,27.108,27.108,0,0,0,2.6,1.506c.016.008.026.024.043.032.459.21.925.441,1.407.68,3.637,1.8,8.615,4.276,20.444,2.763,10.788-1.379,20.507,17.192,22.449,21.149-3.617,3.361-4.36,2.638-6.036,1.013a9.451,9.451,0,0,0-8-3.217,28.327,28.327,0,0,1-14.838-3.106,9.1,9.1,0,0,0-1.474-1.6A20.484,20.484,0,0,0,1040.941,61.645Zm25.742,23.637a9.824,9.824,0,0,0,3.147,5.885,7,7,0,0,0,4.043,1.5,40.238,40.238,0,0,0-1.08,10.2,23.05,23.05,0,0,0-8.22-.969c-1.148-.154-6.341-.428-13.406,5.774C1051.47,93.375,1062.775,87.046,1066.682,85.282Zm-4.01,36.931a2.9,2.9,0,0,0-.467-.612,41.6,41.6,0,0,0,11.241-5.817c.052.574.1,1.147.155,1.72-5.215,2.187-9.7,7.743-12.522,11.959a14.827,14.827,0,0,1,1.276-3.611A3.592,3.592,0,0,0,1062.673,122.214Zm3.163-18.082a26.463,26.463,0,0,1,6.969,1.119q.017.951.055,1.968c-3.634,1.861-6.332,1.953-7.931,1.7A8.594,8.594,0,0,0,1065.835,104.132Zm-.553,13.282c1.294-1.024,1.907-1.908,1.985-2.867.1-1.254-.713-2.151-1.656-3.19-.024-.025-.05-.055-.073-.08.248.016.5.029.773.029a16.11,16.11,0,0,0,6.667-1.6q.092,1.574.229,3.353a37.365,37.365,0,0,1-9.25,5.417C1064.378,118.137,1064.817,117.782,1065.283,117.414Zm-7.047,23.947a7.561,7.561,0,0,0,1.711-4.146c0-.021.044-.674.145-1.656.812-1.533,6.663-12.2,13.754-15.646.427,3.937.906,7.7,1.338,11.062.148,1.148.285,2.221.413,3.235a34.027,34.027,0,0,1-5.022,3.932,1.115,1.115,0,0,0-.3.194C1066.95,140.405,1062.572,142.23,1058.236,141.36Zm13.435-1.169a35.726,35.726,0,0,0,4.265-3.182c.154,1.347.245,2.343.286,3.094.222,3.841-2.889,8.138-6.517,11.5C1067.33,146.338,1070.774,141.354,1071.671,140.192Zm24.18,18.9a71.864,71.864,0,0,1-25.8-4.742c3.241-2.771,8.8-8.427,8.462-14.379-.063-1.169-.239-2.862-.57-5.488-.143-1.167-.309-2.444-.482-3.8-.487-3.782-1.037-8.07-1.5-12.531-.148-1.542-.3-3.117-.422-4.669-.289-3.625-.434-6.52-.456-9.113-.06-5.276.353-9.258,1.225-11.84l.078-.014c.167-.029.342-.061.494-.094h0l.031-.006.034-.009c.225-.044.449-.1.68-.158.013,0,.136-.036.149-.041l.173-.051c.187-.055.379-.113.555-.172l.041-.015c.047-.016.095-.035.142-.051.252-.085.51-.175.787-.278s.556-.222.831-.341c.026-.011.05-.018.075-.029,2.956,6.075,7.781,7.422,9.843,7.721.043.215.1.465.161.746.021.073.037.154.055.236l.14.584c.055.184.11.38.169.608.021.078.046.151.069.229.045.153.095.313.145.473.056.184.113.37.173.549s.124.367.19.554.131.371.2.553c.061.163.125.326.191.492.091.229.184.453.279.674.058.133.113.264.174.4.027.06.053.125.081.185a7.612,7.612,0,0,0,.344.714c.018.037.04.068.058.105.208.4.43.8.67,1.2a15.235,15.235,0,0,0,.919,1.36l.025.033c.007.008.013.018.019.026.084.107.167.206.251.309s.144.181.216.266.154.171.229.255.166.189.252.278c.01.012.019.018.03.031l0,0,.007.007a3.44,3.44,0,0,0,.294.3c.08.08.158.139.24.213.118.11.238.218.359.321.018.015.038.035.056.05.095.085.2.164.368.293.041.032.069.047.107.077.069.052.139.1.209.153.031.02.073.057.1.072.1.067.2.132.3.192.028.02.057.041.085.059h0c.07.045.135.078.2.118l.064.037a4.724,4.724,0,0,0,.472.237c.151.075.3.15.457.216a6.239,6.239,0,0,0,.613.229l.017,0c.129.043.259.079.39.115a3.9,3.9,0,0,0,.426.106c.271.06.546.105.825.139.055.006.108.021.162.025l.068.006c.095.009.191.016.287.021l.056,0a4.556,4.556,0,0,0,.766.018c.154,0,.323,0,.517-.017l.307-.034c.287-.025.573-.064.836-.112l.01,0,.012,0h0l.054-.012.053-.01a5.744,5.744,0,0,0,.563-.116c.056-.014.117-.035.174-.049.037-.01.073-.016.112-.026.124-.033.261-.078.392-.116.1-.031.2-.057.3-.09.289-.095.594-.2.921-.33l.025-.008h0l.011,0c.254-.1.5-.208.727-.315l-.978,4.334a19.085,19.085,0,0,0-3.191,4.862.882.882,0,0,0-.055.1,25.513,25.513,0,0,0-2.149,13.46,1.114,1.114,0,0,0,.006.121,37.645,37.645,0,0,0,2.447,9.951c.347.878.694,1.744,1.052,2.6a1.087,1.087,0,0,0,.059.121c.432,1.03.877,2.038,1.327,3.031.144.315.288.618.433.929.313.676.626,1.349.943,2.006.172.355.342.7.514,1.051.3.6.588,1.195.883,1.779.188.374.374.742.562,1.109.124.245.251.5.375.742A72.552,72.552,0,0,1,1095.851,159.1Zm21.684-3.32a32.172,32.172,0,0,1-11.107-9.71c-.338-.809-.666-1.63-.992-2.454a39.164,39.164,0,0,1-1.558-4.976c2.767,2.494,7.874,5.285,16.877,5.285,5.456,0,11.193,3.348,12.966,4.472A71.843,71.843,0,0,1,1117.535,155.777Zm-5.754,1.554c-.184-.357-.37-.719-.555-1.082-.2-.384-.392-.766-.589-1.156-.294-.584-.589-1.185-.884-1.784-.052-.105-.1-.21-.156-.318a38.264,38.264,0,0,0,4.926,3.666Q1113.165,157.02,1111.781,157.331Zm21.96-11.609c-2.671-1.55-7.832-4.093-12.987-4.093-13.393,0-17.113-6.482-17.632-7.543a24.124,24.124,0,0,1,1.069-9.965,15.957,15.957,0,0,0,12.228,7.336c7.187.7,10.577,3.652,10.7,3.759.012.011.017.028.029.04C1127.211,135.312,1132.948,140.349,1133.741,145.722Zm-3.667-32.4c-2.616.208-5.17,3.459-6.543,6.59-1.493,3.4-1.554,6.368-.172,8.13a20.019,20.019,0,0,1,2.185,3.505,26.009,26.009,0,0,0-8.905-2.376,13.731,13.731,0,0,1-11.333-7.742,16.044,16.044,0,0,1,2.768-4.078,1.154,1.154,0,0,0,.333-.583l1.492-6.613.12-.068a12.852,12.852,0,0,1,6.4-1.639c.3,0,.607.01.919.032l.032,0c.2.011.378.029.56.045.13.008.262.024.4.038.229.027.452.057.665.095l.027,0,.048.007c.155.017.312.043.472.07.19.035.39.086.583.127.344.072.688.141,1.025.232.483.123.974.259,1.49.418.648.2,1.276.435,1.893.668l1.062.411c.294.112.58.234.891.366l.031.014.048.02c.626.266,1.214.53,1.8.794l.079.036c.525.227,1.033.456,1.523.676l.213.095c.058.026.115.05.173.075l.221.1.045.019C1130.349,113.2,1130.149,113.321,1130.074,113.326Zm9.089,6.1c-2.278,3.7-1.292,7.7-.179,10.255-.119-.029-.225-.063-.347-.09-.169-.038-.326-.086-.488-.131-.861-.989-4.285-5.872,1.914-15.315.48-.359.934-.738,1.352-1.118A15.043,15.043,0,0,1,1139.163,119.425Zm-3.486-3.267a6.118,6.118,0,0,0,.634-.114c-2.3,4.576-2.459,8.106-1.929,10.616-.028-.057-.063-.11-.09-.167C1132.716,123.033,1134.875,117.858,1135.677,116.158Zm10.522,13.576a4.362,4.362,0,0,1-1.126,2.924,11.774,11.774,0,0,0-2.915-1.88,12.374,12.374,0,0,1-2.03-7.059,7.6,7.6,0,0,0,3.64,4.05,5.392,5.392,0,0,0,.881.479C1146.03,128.842,1146.156,129.514,1146.2,129.734Zm-1.483-8.521a16.186,16.186,0,0,0-1.875,2.758,6.358,6.358,0,0,1-.84-4.962,15.919,15.919,0,0,0,1.736-8.022c.026.018.051.034.091.063.156.1.326.227.518.367l.526.393c.106.084.219.172.366.294l.986.821c.013.011.031.014.044.024.519.444,1.105.962,1.781,1.583C1147.954,117.062,1146.239,119.261,1144.716,121.213Zm5.223-10.709c-.57.081-1.484.208-2.6.355a25.776,25.776,0,0,0-2.426-1.835c-.036-.023-.076-.053-.111-.073-.054-.036-.106-.07-.157-.1l-.08-.051-.063-.038a4.479,4.479,0,0,0-.4-.217c-.055-.027-.1-.041-.153-.063s-.131-.057-.193-.079a1.99,1.99,0,0,0-.4-.106c-.021,0-.052-.017-.073-.019a1.106,1.106,0,0,0-.466.073h0a1.152,1.152,0,0,0-.4.251c-.008.007-.018.009-.026.016s-.046.051-.073.084l-.007.008-.013.014c-.021.029-.051.064-.076.095-.008.012-.02.023-.029.035s-.033.038-.047.059c-.105.136-.284.345-.507.6a23.45,23.45,0,0,1-2.3,2.259c-1.477.132-2.647.21-3.573.24a9.282,9.282,0,0,1-3.164-.858c-.225-.09-.466-.2-.7-.3-.035-.017-.062-.027-.1-.045-.2-.081-.4-.164-.6-.253-.4-.177-.816-.362-1.245-.554-.588-.265-1.208-.54-1.846-.817l-.217-.095-.461-.2-.052-.023c-.328-.14-.655-.279-1.073-.442-.067-.029-.134-.058-.184-.077l-.228-.087-1.2-.454c-.459-.159-.918-.32-1.4-.471h0l0,0-.712-.209c-.249-.071-.5-.142-.746-.2l-.074-.019h0c-.041-.011-.083-.02-.125-.031l-.219-.055c-.473-.119-.953-.227-1.466-.321l-.083-.014-.046-.009-.134-.021c-.123-.019-.25-.038-.371-.05-.037-.007-.077-.01-.114-.016q-.378-.063-.673-.095c-.33-.037-.673-.069-1.047-.09a15.927,15.927,0,0,0-2.392.012,15.233,15.233,0,0,0-6.815,2.229h0l0,0c-.386.241-.782.459-1.178.665-1.51-.016-3.132-1.778-3.993-4.3-1.061-3.111-.944-7.628,2.885-10.122,7.966-5.191,5.282-10.881,4.605-12.056a.938.938,0,0,0-.108-.171,1.144,1.144,0,0,0-1.605-.216,1.2,1.2,0,0,0-.272,1.531c.642,1.1,2.259,5-3.87,8.991-4.932,3.213-5.131,8.894-3.8,12.783a9.928,9.928,0,0,0,3.193,4.741c-.22.058-.435.112-.668.149-.212.04-.427.068-.664.09-.2.019-.406.041-.635.041-.214,0-.422,0-.627-.016l-.228-.018c-.127-.012-.252-.031-.377-.05-.021-.006-.035-.007-.06-.012l-.342-.062c-.113-.025-.225-.053-.336-.084l-.105-.034c-.087-.028-.159-.05-.193-.057-.154-.052-.305-.107-.455-.172-.066-.029-.134-.059-.192-.092a1.188,1.188,0,0,0-.158-.076,2.528,2.528,0,0,1-.387-.2c-.193-.113-.383-.237-.572-.372-.032-.025-.066-.047-.1-.077-.157-.116-.311-.241-.463-.372-.035-.028-.069-.057-.1-.087-.188-.166-.373-.342-.556-.532a10.8,10.8,0,0,1-.737-.855l-.063-.079c-.017-.027-.034-.053-.053-.078a12.862,12.862,0,0,1-.759-1.1l-.043-.075c-.178-.3-.356-.619-.533-.959q-.224-.432-.424-.868c-.243-.53-.474-1.085-.687-1.666-.017-.047-.032-.093-.049-.14-.2-.541-.376-1.106-.545-1.681a26.081,26.081,0,0,1-.692-2.994,1.071,1.071,0,0,0-.074-.219,1.146,1.146,0,0,0-.057-.167l0,0a1.137,1.137,0,0,0-.86-.562,1.309,1.309,0,0,0-.133-.026l-.092,0c-.748-.038-6.255-.558-9.1-7.47a1.144,1.144,0,0,0-1.559-.595l-.031.014c-.321.156-.635.3-.943.431-.131.058-.252.1-.38.157-.208.086-.414.168-.616.244-.132.049-.263.094-.395.139-.238.083-.477.165-.705.232l-.031.009c-.314.092-.618.17-.913.232-.157.033-.308.059-.452.085l-.128.023c-.165.028-.33.047-.514.069a5.292,5.292,0,0,1-4.083-.971c-1.725-1.385-2.331-3.934-2.537-5.829a15.994,15.994,0,0,1-.087-2.373,1.147,1.147,0,0,0-1.319-1.2c-.081.011-8.1,1.205-13.37-2.434-2.79-1.939-3.512-4.223-4.278-6.642-.138-.434-.281-.873-.434-1.311a31.3,31.3,0,0,0,13.359,2.131c3.381-.217,4.841,1.2,6.259,2.576,1.2,1.167,2.3,2.045,3.721,2.045,1.5,0,3.363-.977,6.1-3.622a1.147,1.147,0,0,0,.247-1.3c-.464-1.021-11.521-24.951-25.177-23.2a43.7,43.7,0,0,1-9.916.3c.555-.084,1.2-.193,1.93-.319,6.269-1.078,17.935-3.085,26.65,2.851,2.051,1.395,3.857,3.617,5.687,6.992l.011.012c.885,1.622,1.7,3.347,2.48,5.017.917,1.947,1.782,3.785,2.74,5.445,3.349,5.837,9.414,9.517,10.471,9.56h.049A1.115,1.115,0,0,0,1094.2,78c.019-.006.041,0,.059-.011a1.134,1.134,0,0,0,.333-.2c.011-.01.028-.015.039-.026a1.194,1.194,0,0,0,.2-.267c.017-.031.045-.053.06-.086a1.143,1.143,0,0,0-.831-1.611,22.838,22.838,0,0,1-8.738-8.431c-.913-1.579-1.759-3.375-2.653-5.277-.359-.765-.727-1.542-1.1-2.32-.116-.239-.239-.474-.357-.712-.207-.418-.409-.839-.626-1.252l.046-.034a18.767,18.767,0,0,1,2.221-1.375l.041-.019c.252-.13.509-.251.766-.363.08-.035.159-.067.24-.1q.287-.117.572-.213c.134-.044.263-.081.39-.116.147-.041.291-.075.434-.1s.259-.047.383-.062a4.169,4.169,0,0,1,.438-.027c.1,0,.2-.006.3,0a2.519,2.519,0,0,1,.6.118c.016.006.036.007.053.012a1.154,1.154,0,0,0,1.347-.422c.175-.253.344-.486.518-.728s.342-.485.511-.714.342-.454.512-.679c.21-.276.421-.553.627-.813.107-.136.214-.266.32-.4.305-.374.609-.738.909-1.078l.06-.069q.538-.605,1.066-1.144h0c.289-.293.572-.561.852-.818.186-.168.371-.336.573-.506.069-.064.147-.121.219-.181a37.262,37.262,0,0,1,10.54,3.185,13.025,13.025,0,0,0-7.246,4.452c-4.118,5.116-3.239,12.185-3.2,12.482a1.145,1.145,0,1,0,2.271-.3c-.008-.063-.8-6.386,2.712-10.745,1.928-2.4,4.838-3.773,8.648-4.094l.008,0a2.983,2.983,0,0,1,1.432,2.116c0,1.352-.423,2.029-1.787,2.029a2.25,2.25,0,0,1-.482-.046,1.526,1.526,0,0,0,.379-1.008,1.59,1.59,0,0,0-1.593-1.593,1.52,1.52,0,0,0-.756.194,1.465,1.465,0,0,0-.87,1.311c0,.114-.028,2.8,3.231,2.8a2.9,2.9,0,0,0,2.831-3.395,2.662,2.662,0,0,0-.786-1.432,27.841,27.841,0,0,1,6.42,6.184,1.131,1.131,0,0,0-.744.366c-2.253,2.5-13.454,6.233-17.58,7.46a1.146,1.146,0,1,0,.653,2.2c1.58-.47,15.541-4.69,18.63-8.123a1.077,1.077,0,0,0,.163-.275c.181.285.355.58.527.877-1.986,3.876-3.724,8.1-4.117,11.578a1.148,1.148,0,0,0,1.011,1.267,1.276,1.276,0,0,0,.13.008,1.148,1.148,0,0,0,1.138-1.018c.933-8.254,10.568-21.837,10.666-21.974a.983.983,0,0,0,.083-.188c.016-.032.045-.053.056-.086a11.851,11.851,0,0,1,5.847-6.164c.249-.115.52-.214.788-.314.113-.043.216-.093.332-.132a12.7,12.7,0,0,1,4.1-.644c8.07,0,8.779,10.473,8.8,10.919a1.147,1.147,0,0,0,.876,1.049,6.688,6.688,0,0,1,3.362,2.342l.013.015a6.434,6.434,0,0,1,.552.872l.007.012c1.141,2.169,1.136,5.066-.008,8.625-.05-.031-.1-.054-.155-.085-.275-.164-.555-.318-.839-.461-.088-.044-.174-.092-.262-.135-.118-.057-.236-.109-.355-.162-.066-.031-.139-.063-.226-.1-.053-.02-.109-.04-.25-.105-.028-.011-.06-.021-.087-.033-.07-.027-.138-.058-.208-.084-.048-.018-.1-.032-.146-.05s-.093-.031-.139-.046-.108-.041-.169-.062l-.218-.069c-.159-.051-.318-.1-.479-.145-.124-.035-.252-.066-.379-.1l-.135-.035c-.153-.036-.3-.072-.458-.1l-.014,0-.372-.072c-.094-.017-.189-.031-.284-.045-.3-.049-.611-.085-.922-.115-.111-.01-.219-.027-.331-.035h-.017c-.508-.037-1.025-.046-1.55-.036-.109,0-.219.011-.328.016-.424.016-.852.044-1.286.09-.139.016-.279.036-.419.054-.236.031-.468.05-.708.089-.173.028-.344.073-.517.106s-.365.073-.548.113c-.42.092-.84.193-1.257.309-.08.021-.157.035-.237.058-.025,0-.048.015-.073.02-.009,0-.017,0-.026,0-.045.014-.092.032-.137.045h-.007c-.126.033-.262.08-.393.121-.08.025-.159.047-.238.073-.033.011-.061.018-.094.029-.108.036-.216.08-.324.119q-.393.134-.79.283c-.172.064-.345.127-.515.194l-.049.018c-.276.109-.543.217-.832.344-.089.041-.177.086-.266.127-.362.162-.719.332-1.075.508-.105.052-.208.1-.313.153s-.184.086-.277.132c-.031.016-.061.035-.093.051a38.948,38.948,0,0,0-4.983,3.1l-.08.06q-.817.6-1.579,1.216l-.129.1c-1.052.86-2.019,1.732-2.875,2.588-.039.037-.072.073-.109.111q-.531.534-1,1.055l-.279.312c-.239.272-.462.538-.675.8-.1.121-.2.243-.292.361-.215.277-.409.545-.589.806-.044.063-.1.136-.145.2a34.559,34.559,0,0,1-5.132,5.632c-3.738,3.538-7.6,7.2-7.5,13.568.05,2.987.887,4.86,2.49,5.567a3.186,3.186,0,0,0,.647.2c.049.011.1.018.147.027a3.682,3.682,0,0,0,.546.051c.029,0,.055.008.084.008.012,0,.024,0,.036,0a4.6,4.6,0,0,0,.765-.075c.053-.009.105-.019.158-.031a6.585,6.585,0,0,0,.74-.2c.036-.012.07-.027.106-.04.216-.077.427-.163.635-.255.054-.025.109-.047.163-.073q.32-.151.615-.318c.069-.037.132-.075.2-.113.173-.1.34-.2.5-.3l.2-.131c.115-.077.224-.153.325-.225.066-.047.129-.092.189-.137.1-.078.2-.15.286-.218.155-.122.286-.228.366-.3.143-.088.257-.151.389-.229l.046-.027c.164-.1.326-.192.5-.284l.056-.034c.065-.036.141-.083.2-.116.04-.021.075-.037.113-.058.171-.089.328-.163.484-.234a1.115,1.115,0,0,0,.144-.058l.007,0a1.076,1.076,0,0,0,.155-.076l.032-.012c.126-.051.249-.093.368-.131.071-.024.138-.049.223-.072.055-.015.108-.025.162-.037.127-.029.254-.059.379-.077.022,0,.045,0,.066-.007l.024,0c.1-.011.2-.016.3-.02l.081,0c.092,0,.183-.006.276,0,.165.006.333.016.511.036l.158.017c.19.025.391.057.6.094l.076.012a1.108,1.108,0,0,0,.148.028c.034.007.081.016.112.02l.1.018c.2.037.388.072.611.116.4.078.848.164,1.344.253.021,0,.039.007.06.012a1.183,1.183,0,0,0,.144.024l.055.01.034.007.063.01c.3.052.626.1.968.155h.007c.918.138,1.977.27,3.229.373l.4.027.093.009.512.034c.02,0,.043,0,.063,0,.328.019.651.031.97.031.138,0,.268-.016.4-.02.117,0,.24.007.354,0h.03c.149-.008.291-.029.438-.042s.283-.024.422-.04c.209-.024.415-.05.618-.083.114-.018.225-.043.337-.064s.241-.043.36-.069c.25-.055.494-.124.736-.2.111-.032.223-.06.331-.095l.174-.055a10.6,10.6,0,0,0,1.119-.457l.027-.011,0,0a10.027,10.027,0,0,0,4.393-4.166c.025.025.047.053.072.079.416.434.816.891,1.206,1.358.055.067.112.133.167.2.4.483.788.973,1.171,1.458a18.585,18.585,0,0,0,3.9,4.094c.115.076.239.128.356.2.226.133.451.27.684.379.068.032.138.051.206.08a7.909,7.909,0,0,0,.9.335c.043.012.087.018.13.029a7.373,7.373,0,0,0,.97.2c.091.012.183.012.276.021.212.019.426.049.641.049.044,0,.088-.01.131-.011s.087.008.131.007l.08.19Z" transform="translate(-1026.979 -32.491)" fill="#704f43"/></g></g></svg>