<svg xmlns="http://www.w3.org/2000/svg" width="146" height="144.723" viewBox="0 0 146 144.723"><g transform="translate(-1176.741 -166.294)"><g transform="translate(1178.353 171.715)" opacity="0.15"><path d="M1280.722,225.279l-2.594-2.672-1.338,1.49a3.592,3.592,0,0,0-.152-1.979,1.968,1.968,0,0,0-1.835-1.4,2,2,0,0,0-1.835,1.4,2.495,2.495,0,0,0,.005,1.81,1.915,1.915,0,0,0,1.39,1.9,2.075,2.075,0,0,0,.866.008l-2.2,2.447s9.166,11.9,16.818,12.121a77.606,77.606,0,0,0,2.847-7.411S1286.952,234.071,1280.722,225.279Z" transform="translate(-1152.494 -157.064)" fill="#ebe3d0"/><path d="M1261.2,217.2a31.126,31.126,0,0,0-6.945,7.062,11.06,11.06,0,0,0,1.071-3.189,1.539,1.539,0,0,0,1.014-1.243c.031-.175.046-.339.067-.506h0v-.014c.017-.127.039-.259.051-.382l.008-.015a5.3,5.3,0,0,0-.557-4.751,2,2,0,0,0-2.076-.882,1.947,1.947,0,0,0-2.485,2.288c.764,3.132.485,6.541-1.979,8.92-1.181,1.14-3.032,1.575-4.2,2.744a8.851,8.851,0,0,0-2.589,4.843c-.747,4.134.933,9.931,4.928,11.867a1.911,1.911,0,0,0,1.237.168c1.58,1.487,4-1.074,2.507-2.876-1.367-1.645-2.941-3.5-3.312-5.671a8.231,8.231,0,0,1,.169-2.022c.414-1.771,1.7-2.879,3.092-3.937a2.112,2.112,0,0,0,.275-.254,5.6,5.6,0,0,0-.316,2.179c.393,4.049.888,7.7,3.808,6.562a19.106,19.106,0,0,0,4.455-2.335s1.669-12.668,18.408-16.28a1.855,1.855,0,0,0,1.437,3.052c2.975-.145,5.75.121,7.91,2.375,1.773,1.85,2.852,4.414,4.024,6.657,1.9,3.64,3.636,6.112,7.732,7.253,2.365.659,3.374-3.013,1.013-3.671-5.274-1.47-6.4-8.709-9.727-12.522a11.112,11.112,0,0,0-7.816-3.855c.845-.084,1.711-.155,2.619-.2,2.348-7.932,11.334-13.847,11.334-13.847L1292.234,198s-3-.482-7.983,1.092l1.18.127-3.007,10.039-4.037-7.234,1.1-1.028c-.432.2-.862.419-1.307.66a48.7,48.7,0,0,0-7.336,4.848C1265.823,210.474,1265.01,214.688,1261.2,217.2ZM1252,227.99a2.285,2.285,0,0,0-.115-.7,1.848,1.848,0,0,0,.05-.183,8.716,8.716,0,0,0,1.094-1.014A19.142,19.142,0,0,0,1252,227.99Z" transform="translate(-1160.675 -163.199)" fill="#ebe3d0"/><path d="M1220.724,220.123c-1.23-.334-3.6-.725-4.575-1.626-1.108-1.022-1.335-3.311-1.472-4.7-.166-1.669-2.664-2.853-3.549-.961-.07.151-.112.3-.173.453-1.019-.711-2.575-.569-2.8.966-.489,3.346,1.33,5.554,3.493,7.892,2.005,2.168,4.244,4.054,7.172,4.77a1.911,1.911,0,0,0,2.362-1.873,4.508,4.508,0,0,0-.458-4.918Z" transform="translate(-1169.918 -159.447)" fill="#ebe3d0"/><path d="M1219.164,229.561l-7.858-.647a1.716,1.716,0,0,0-1.737,2.357,1.763,1.763,0,0,0,1.075,2.73,60.929,60.929,0,0,0,7.626,1.182,1.64,1.64,0,0,0,1.805-1.967A1.993,1.993,0,0,0,1219.164,229.561Z" transform="translate(-1169.593 -154.86)" fill="#ebe3d0"/><path d="M1285.917,281.209c-.562-.3-1.109-.557-1.654-.81a1.967,1.967,0,0,0,2.079-2.372c-1.335-5.977-4.748-10.977-10.362-13.7-6.393-3.1-17.742-.868-21.585-8.2,1.4-3.536,3.814-6.767,5.551-10.288a22.7,22.7,0,0,1,15.4,2.047,1.951,1.951,0,0,0,2.741-1.105c4.563-3.135,4.686-4.99,4.686-4.99l-13.163-4.8-9.284,1.147-5.1,2.121-6.46,1.3-5.316-1.7-3.446-5.987-2.367-7.746s-9.216-1.644-11.5-9.188l-6.358,2.5-1.4,8.271s4.983.484,6.927-1.137c2.592,5.227,7.035,5.227,7.035,5.227s7.417,22.2,21.254,17.157a19.451,19.451,0,0,0,3.021-5.984s.146-.018.4-.044a1.8,1.8,0,0,0-.41,1.414c-2.877,6.671-7.962,11.292-6.912,19.664a60.808,60.808,0,0,0,1.281,6.839,1.907,1.907,0,0,0-1.033,3.2,16.319,16.319,0,0,0,2.546,2.075,123.256,123.256,0,0,0,4.615,11.8,1.777,1.777,0,0,0,.631,2.565,6.072,6.072,0,0,1,.773.561c.125.277.248.551.374.826a1.516,1.516,0,0,0,1.6.97,6.962,6.962,0,0,0,1.3.96c2.153,1.174,4.075-2.112,1.921-3.287a9.677,9.677,0,0,1-2.036-1.664c-1.584-3.466-3.211-7.043-4.608-10.708a31.266,31.266,0,0,0,3.643.756c7.864,1.2,16.219,1.88,23.3,5.6C1286.162,285.636,1288.089,282.352,1285.917,281.209Zm-30.51-7.841a46.041,46.041,0,0,1-2.111-11.249c-.019-.412-.009-.815.01-1.215,2.436,2.24,5.818,3.483,9.052,4.33,3.043.8,6.234.773,9.26,1.568,6.037,1.585,9.732,6.33,11.052,12.238a1.777,1.777,0,0,0,.448.859c-4.167-1.758-8.007-2.429-12.852-3.189C1265.623,275.981,1259.741,275.687,1255.407,273.368Z" transform="translate(-1167.145 -158.079)" fill="#ebe3d0"/><path d="M1231.937,184.57c2.17,1.132,4.1-2.153,1.921-3.288a12.843,12.843,0,0,1-4.818-4.247c-1.357-2.026-4.655-.122-3.287,1.922A16.766,16.766,0,0,0,1231.937,184.57Z" transform="translate(-1165.247 -169.056)" fill="#ebe3d0"/><path d="M1241.7,176.035a1.9,1.9,0,1,0,3.287-1.922,19.9,19.9,0,0,0-2.292-3,1.9,1.9,0,0,0-2.693,2.692A13.325,13.325,0,0,1,1241.7,176.035Z" transform="translate(-1161.469 -170.565)" fill="#ebe3d0"/><path d="M1217.138,206.415c2.359.511,5.026.69,7.194,1.873.787.429,1.239,1.324,2.089,1.743,4.07,2.008,8.31-3.459,5.123-6.717a2,2,0,0,0-1.311-.565c.882-4.521-6.785-12.749-9.027-14.819a21.723,21.723,0,0,0-13.357-6.06c-3.2-.181-6.337.682-9.534.741-1.647.03-3.293-.053-4.941-.159a1.467,1.467,0,0,0-.744-.386,23.347,23.347,0,0,1-5.078-1.444,2.217,2.217,0,0,0-1.892,0l-4.822-3.3c-1.5-1.026-3.064.663-2.8,2.15a14.894,14.894,0,0,0,2.934,6.218,1.793,1.793,0,0,0,.166,1.471,25.182,25.182,0,0,0,7.054,8.254c2.432,1.8,7.43,2.755,10.287,4.619a1.471,1.471,0,0,0,.878,2l2.184.93a2.066,2.066,0,0,0,.981.143,16.18,16.18,0,0,0,6.4,1.857C1211.732,205.3,1214.386,205.82,1217.138,206.415Zm4.87-7.158-.3-.289c.01-.011.023-.022.033-.033.112.107.222.214.333.322C1222.049,199.255,1222.029,199.257,1222.008,199.257Z" transform="translate(-1178.011 -168.83)" fill="#ebe3d0"/><path d="M1269.532,221.074c-.854.855-1.683,1.734-2.476,2.648-.425.491-1.2,1.8-1.915,1.88a1.959,1.959,0,0,0-1.9,1.9,1.916,1.916,0,0,0,1.9,1.9c3.216-.347,4.97-3.526,7.083-5.643A1.9,1.9,0,0,0,1269.532,221.074Z" transform="translate(-1155.069 -157.119)" fill="#ebe3d0"/><path d="M1258.277,186.621c.129,1.456.381,2.846.447,3.677a1.979,1.979,0,0,0,2.371,1.812,1.856,1.856,0,0,0,1.813-1.38,10.641,10.641,0,0,1,.437-1.644.2.2,0,0,0,.018-.027c.084-.192.162-.411.237-.642a7.792,7.792,0,0,1,1.078-1.793A2.214,2.214,0,0,0,1265.2,185a1.851,1.851,0,0,0-1.776-2.781,2.725,2.725,0,0,0-2.347-1.306,2.535,2.535,0,0,0-1.571.411c-.145-.27-.3-.538-.435-.814-1.108-2.186-4.394-.261-3.287,1.923A37.138,37.138,0,0,0,1258.277,186.621Z" transform="translate(-1157.136 -168.146)" fill="#ebe3d0"/><path d="M1239.556,213.414a1.952,1.952,0,0,0,.546-.029c2.149.091,2.971-3.249.68-3.7-10.239-2.038-13.1-14.441-16.857-22.809a1.669,1.669,0,0,0-2.849-.346,1.645,1.645,0,0,0-1.505,2.276C1223.631,199.378,1226.246,212.169,1239.556,213.414Z" transform="translate(-1166.86 -166.441)" fill="#ebe3d0"/><path d="M1235.964,184.063a28.951,28.951,0,0,1,20.927,12.568,1.876,1.876,0,0,0,1.932.82c-4.565,4.214-12.41,6.465-17.99,6.3-2.451-.074-2.448,3.734,0,3.808a32.255,32.255,0,0,0,15.951-4.069,24.461,24.461,0,0,0-.885,5.88,1.858,1.858,0,0,0,2.8,1.616,1.642,1.642,0,0,0,1.83-1.355c.463-2.106.942-4.216,1.54-6.288a21.335,21.335,0,0,1,3.05-5.667,1.793,1.793,0,0,0-1.319-2.757,2.228,2.228,0,0,0-.971-.487,1.659,1.659,0,0,0-.308-2.2c-7.258-6.708-15.292-12.169-25.368-13.064a1.546,1.546,0,0,0-1.726,1.112C1233.555,180.594,1233.744,183.823,1235.964,184.063ZM1260.5,195.6a1.563,1.563,0,0,0-.048-.293,1.877,1.877,0,0,0,.221.07C1260.615,195.457,1260.553,195.529,1260.5,195.6Z" transform="translate(-1162.899 -168.252)" fill="#ebe3d0"/><path d="M1223.138,258.884a1.7,1.7,0,0,0-1.75-.414c-3.97,1.661-7.607,4.254-8.718,8.642a1.849,1.849,0,0,0,.052,1.142c-.184.222-.368.446-.555.668-1.562,1.867,1.118,4.574,2.693,2.692,2.858-3.415,5.526-6.88,8.992-9.721C1225.108,260.864,1224.342,259.349,1223.138,258.884Z" transform="translate(-1168.944 -146.928)" fill="#ebe3d0"/><path d="M1223.983,244.562c-2.536-6.492-13.79,8.714-15.746,10.768a1.846,1.846,0,0,0,.044,2.641q-2.123,2.732-4.04,5.62c-1.358,2.049,1.938,3.957,3.287,1.923a77.551,77.551,0,0,1,10.758-13.019C1219.983,250.857,1225.179,247.62,1223.983,244.562Z" transform="translate(-1171.037 -151.076)" fill="#ebe3d0"/><path d="M1282.982,237.178c-.009-2.449-3.817-2.453-3.808,0,.007,1.958-.876,3.772-1.238,5.68a23.322,23.322,0,0,0-.351,5.661c.136,2.437,3.943,2.452,3.808,0a19.362,19.362,0,0,1,.613-6.328A18.344,18.344,0,0,0,1282.982,237.178Z" transform="translate(-1151.217 -153.128)" fill="#ebe3d0"/><path d="M1283.566,254.495c-1.849-1.309-4.267-2.788-4.581-5.248a1.969,1.969,0,0,0-1.9-1.9,1.913,1.913,0,0,0-1.9,1.9c.521,4.084,3.277,6.279,6.467,8.535C1283.649,259.2,1285.554,255.9,1283.566,254.495Z" transform="translate(-1151.857 -149.897)" fill="#ebe3d0"/></g><path d="M1270.8,201.231l-.2.2v-.571Z" transform="translate(25.266 9.306)" fill="#ebe3d0"/><g transform="translate(1176.741 166.294)"><path d="M1273.209,188.4a3.9,3.9,0,1,0-3.9-3.9A3.9,3.9,0,0,0,1273.209,188.4Z" transform="translate(-1151.822 -162.441)" fill="#ebe3d0"/><path d="M1322.615,246.068c.013-.027.016-.056.027-.082a1.31,1.31,0,0,0,.078-.362c0-.023.014-.042.015-.066.136-6.892-1.92-12.074-6.114-15.4-3.734-2.964-8.526-3.966-12.784-4.144,1.218-3.1,5.871-7.952,9.525-11.2a18.4,18.4,0,0,1,1.55,6.521,1.287,1.287,0,0,0,2.22.847c4.4-4.641,2.3-11.3,1.587-13.16,1.905-5.2,2-9.534.26-12.856a10.131,10.131,0,0,0-5.182-4.638c-.559-5.23-3.69-13.814-12.383-13.814a17.039,17.039,0,0,0-4.35.542,15.93,15.93,0,0,0-9.816,7.859c-.853-.544-2.106-1.321-3.6-2.191l-.114-.066q-.662-.385-1.384-.789l-.261-.147q-.687-.383-1.418-.772c-.1-.056-.2-.109-.3-.164q-.8-.425-1.637-.847l-.165-.085q-.88-.44-1.789-.864c-.255-.119-.514-.231-.771-.348-.307-.138-.612-.279-.92-.414-1.219-2.127-7.2-11.155-18.884-7.524-2.54-2.081-6.165-4.573-9.955-5.563a1.286,1.286,0,0,0-1.542,1.665,40.845,40.845,0,0,0,4.647,9.322c-2.638-1.708-5.875-3.337-8.339-3.056a1.287,1.287,0,0,0-1.136,1.4,11.975,11.975,0,0,0,.237,1.472c-2.4-.789-6.807-2.842-12.475-8.176a1.285,1.285,0,0,0-2.127.616c-2.536,9.841,9.276,19.044,9.843,19.476l2.847,1.932a22.565,22.565,0,0,0-2.339,1.458A22.219,22.219,0,0,0,1229.2,185c-10.644-7.25-24.937-4.792-31.8-3.61-1.1.189-2.032.349-2.748.437a21.717,21.717,0,0,1-9.226-.825l-.073-.02a8.425,8.425,0,0,1-1.578-.631c-.035-.016-.073-.037-.11-.053h0a37.992,37.992,0,0,1-4.859-3.092,1.287,1.287,0,0,0-2.061,1.066c.155,5.1,2.817,11.356,2.944,11.65a22.047,22.047,0,0,0,3.309,5.541,21.655,21.655,0,0,0,8.361,5.913,20.59,20.59,0,0,1,5.241,3.079,7.489,7.489,0,0,1,1.386,1.54.618.618,0,0,0,.047.063,16.045,16.045,0,0,1,1.74,4.14c.907,2.867,1.936,6.118,5.791,8.8,5.27,3.64,12.338,3.563,15.384,3.322.008.188.019.4.032.612-4.179,1.815-20.928,10.4-19.579,30.784a1.287,1.287,0,0,0,2.195.825c6.874-6.887,12.169-7.748,14.192-7.788.093,1.58-.034,4.171-1.441,4.725a1.343,1.343,0,0,0-.113.076,1.066,1.066,0,0,0-.415.348,1.109,1.109,0,0,0-.113.128.92.92,0,0,0-.043.128,1.105,1.105,0,0,0-.061.1c-.013.039,0,.081-.014.122a1.421,1.421,0,0,0-.019.515,1.224,1.224,0,0,0,.1.3,1.3,1.3,0,0,0,.044.138,19.107,19.107,0,0,0,2.508,3.254c.546.6,1.223,1.347,1.2,1.641-.006.074-.1.489-1.259,1.41-3.937,3.118-6.45,5.45-6.556,5.548a1.177,1.177,0,0,0-.151.189c-.021.027-.045.05-.062.077a1.287,1.287,0,0,0-.165.412c-.007.03,0,.061-.008.091a1.22,1.22,0,0,0,.005.374.584.584,0,0,0,0,.069c0,.023.02.041.027.063s.009.07.02.1a1.272,1.272,0,0,0,.085.155,1.068,1.068,0,0,0,.067.126,1.3,1.3,0,0,0,.193.216,1.117,1.117,0,0,0,.081.08,1.285,1.285,0,0,0,.35.2c.018.006.037.005.053.011a1.361,1.361,0,0,0,.313.063c.6.03,1.852.32,2.157.876.234.421-.119,1.174-.349,1.585-2.416,4.314-3,13.469-3.022,13.808-.067.661-.5,2.693-1.544,3.349a1.822,1.822,0,0,1-1.753.014,1.287,1.287,0,0,0-1.08,2.326,15.177,15.177,0,0,0,7.632,2.028,20.628,20.628,0,0,0,8.216-1.889,13.921,13.921,0,0,0,.041,12.269c-.3.244-.6.482-.9.712a1.287,1.287,0,0,0,.291,2.211,84.085,84.085,0,0,0,49.439,4.5h0c2.42-.512,4.816-1.132,7.119-1.843a83.348,83.348,0,0,0,20.911-9.749,1.286,1.286,0,0,0,.119-2.073q-.192-.16-.388-.32c.28-7.149-6.595-13.832-8.122-15.223a26.02,26.02,0,0,0-4.19-7.988c-.907-1.155-.7-3.71.524-6.506,1.529-3.49,3.885-5.763,5.2-5.867a3.7,3.7,0,0,0,2.8-2.193,14.714,14.714,0,0,0,1.732.506,1.3,1.3,0,0,0-.405.451c-.189.35-4.6,8.67-1.944,14.515,1.149,2.526,3.388,4.183,6.653,4.926,5.092,1.157,6.73,3.544,6.737,3.554a1.292,1.292,0,0,0,.938.6c.051.005.1.008.152.008a1.286,1.286,0,0,0,.9-.366c.355-.346,3.446-3.475,2.864-6.6a4.9,4.9,0,0,0-3.254-3.565c-.621-.267-.881-.517-.915-.649-.141-.553,1.1-2.142,2-3.3,1.983-2.541,4.449-5.7,4.282-9.7a1.292,1.292,0,0,0-.409-.89c-.128-.119-.267-.244-.4-.364.9-.126,1.455-.206,1.455-.206a1.289,1.289,0,0,0,1-.781l2.457-5.918a1.282,1.282,0,0,0,0-1l-.1-.225a7.948,7.948,0,0,0,3.067-1.941l.041-.037c.011-.011.026-.02.035-.032A1.261,1.261,0,0,0,1322.615,246.068Zm-24.808-4.087c-.2.081-.4.169-.608.239l-.079.028c-.085.027-.172.051-.259.076a10.907,10.907,0,0,1-1.078.254c-.034.006-.069.014-.1.019-.083.014-.168.025-.251.038-.363.053-.736.093-1.12.115-.105.006-.209.017-.316.02-.057,0-.118,0-.175,0a40.677,40.677,0,0,0,3.676-5.737A9.758,9.758,0,0,1,1297.807,241.981Zm-7.122.632-.108-.009c-.508-.042-.989-.1-1.435-.155l-.938-.127c-.051-.009-.106-.015-.165-.022l-.126-.019c1.112-1.55,3.711-4.727,7.04-5.935A47.525,47.525,0,0,1,1290.685,242.613Zm9.262-6.322a9.38,9.38,0,0,1,2.127,1.1c.115.079.216.174.326.256a9.307,9.307,0,0,1-1.849,2.561A12.513,12.513,0,0,0,1299.948,236.291Zm17.638,9.938q-.147.03-.3.053a5.815,5.815,0,0,1-4.172-.953,19.409,19.409,0,0,1-3.767-4.035,34.854,34.854,0,0,0-4.5-4.994,13.034,13.034,0,0,0-1.316-1.031,10.8,10.8,0,0,0-4.957-1.9c-.067-.107-.125-.212-.2-.317a1.273,1.273,0,0,0-2.289.362c-.21.032-.42.057-.631.1-5.891,1.29-9.906,7.605-10.315,8.268l-.122-.023c-.392-.076-.751-.142-1.1-.2h0a1.113,1.113,0,0,0-.159-.03l-.407-.065a1.492,1.492,0,0,0-.15-.019.548.548,0,0,0-.062-.008c-.029-.005-.062-.009-.093-.013l-.314-.036h-.015l-.018,0-.032,0c-.041-.006-.089-.011-.134-.015l-.128-.011a1.2,1.2,0,0,0-.165-.018c-.238-.009-.481-.008-.736,0-.083,0-.168.009-.253.014s-.146.005-.23.011c-.049.006-.1.017-.156.023l-.155.018c-.057.009-.117.022-.174.03-.032.005-.058.008-.093.014a.976.976,0,0,0-.264.053l-.043.01-.123.032c-.076.018-.157.036-.222.055l-.034.011c-.086.025-.177.055-.264.082-.028.009-.055.014-.083.024,1.754-3.9,5.974-10.544,14.74-12.227.433-.086.891-.142,1.347-.2.255-.033.5-.079.76-.1.7-.063,1.429-.1,2.175-.1h.031c.044,0,.086.009.129.01a8.391,8.391,0,0,1,1.235.107c.152.024.3.07.448.1.29.064.579.128.857.218.15.048.294.11.44.166.27.1.537.207.8.33.141.067.278.142.416.216.248.132.494.268.731.416.142.089.279.18.418.274.213.146.424.294.627.449q.232.177.457.363c.161.132.317.267.471.4.186.165.367.331.542.5.093.09.183.179.272.269.223.225.442.452.648.683l.076.084a26.08,26.08,0,0,1,3.2,4.528l.018.033c.074.132.131.239.186.341.019.037.044.084.062.117l.036.074c.037.071.073.141.094.185a10.877,10.877,0,0,0,2.55,4.431c.059.063.125.123.184.185.188.19.385.376.591.558.131.114.261.228.4.34.262.208.538.41.831.6.056.036.1.079.158.114.17.105.35.189.526.283.08.044.159.089.241.131.229.117.463.223.7.324.107.044.216.086.325.128C1317.285,246.109,1317.43,246.178,1317.586,246.229Zm-2.565-14.058c3.266,2.592,4.99,6.624,5.136,12h-.01c-.057-.006-.108-.02-.165-.028a9.3,9.3,0,0,1-.964-.184c-.129-.032-.251-.072-.376-.109-.234-.069-.463-.146-.685-.233-.123-.048-.245-.1-.362-.15a7.655,7.655,0,0,1-.786-.407c-.043-.025-.091-.047-.133-.072a7.617,7.617,0,0,1-.875-.643l-.121-.1a9,9,0,0,1-2.589-4.02l-.005-.018a1.367,1.367,0,0,0-.083-.237c-.156-.335-2.871-6.034-7.719-9.263A18.28,18.28,0,0,1,1315.021,232.172ZM1301.166,226a39.342,39.342,0,0,0-7.662.986c-12.446,2.455-16.678,13.824-17.491,16.439l-.01.005-.01.008-.015.009c-.035.023-.067.049-.1.074s-.052.034-.075.055a11.241,11.241,0,0,1-1.018.779c-1.217.834-2.892,1.679-3.842,1.26-.767-.339-1.226-1.776-1.262-3.94-.1-6.02,3.473-9.4,7.611-13.323a40.737,40.737,0,0,0,6.133-6.76c.067-.1.152-.208.223-.311.17-.241.341-.482.542-.739.1-.126.208-.255.312-.382.218-.268.445-.539.694-.82.1-.115.209-.232.316-.35q.429-.466.906-.951c.1-.1.193-.2.295-.3.411-.406.844-.817,1.3-1.231l.059-.053c.459-.411.949-.825,1.453-1.237.189-.155.387-.307.581-.461q.485-.385.993-.763.354-.265.717-.524c.361-.258.731-.509,1.106-.759.209-.141.414-.283.627-.42.405-.261.827-.509,1.249-.759,2.182,1.763,3.649,5.779,4.054,7.3a1.284,1.284,0,0,0,1.1.948,1.024,1.024,0,0,0,.14.009,1.291,1.291,0,0,0,1.144-.7,22.582,22.582,0,0,0,2.211-11.226c.151-.037.3-.08.456-.113q.286-.063.571-.118.573-.11,1.134-.187c.206-.028.41-.055.613-.075.344-.037.684-.06,1.022-.076.226-.011.453-.02.675-.023.282,0,.559.008.834.019a32.546,32.546,0,0,1,3.439,5.1C1309.65,214.629,1302.439,221.262,1301.166,226Zm-1.037-11.171a16.159,16.159,0,0,0-2.951-4.6c.249-.124.5-.248.749-.366.213-.1.427-.2.638-.3q.577-.259,1.16-.492c.182-.074.362-.143.542-.212.032-.013.062-.023.094-.034.189-.072.38-.137.57-.2A18.648,18.648,0,0,1,1300.129,214.831Zm16.813,2.561a29.4,29.4,0,0,0-4.46-9.449c.063.02.129.033.191.053l.107.039c.39.135.771.289,1.146.459l.228.1c.343.165.679.348,1.009.542.09.053.183.1.265.156.3.183.583.386.867.594A13.029,13.029,0,0,1,1316.943,217.392Zm-61.255-35.813.05-.024.012-.005c.055-.03.114-.055.169-.084.371-.2.75-.387,1.147-.561.117-.051.241-.093.36-.141.352-.145.708-.283,1.081-.407a20.094,20.094,0,0,1,2.62-.68l.053-.011a25.894,25.894,0,0,1,2.679-.379c.11-.009.231-.01.347-.015s.218-.013.331-.014a13.218,13.218,0,0,1,2.356.234c.084.015.17.038.254.055.36.07.73.148,1.118.246.113.029.231.065.346.1.348.094.7.2,1.073.312.183.057.369.118.557.182.3.1.614.211.928.325.236.086.468.169.713.264.3.115.615.245.926.373.136.056.268.107.406.165.953,1.05,5.966,6.949,6.419,14.947C1272.459,186.214,1261.25,182.721,1255.687,181.579Zm26.354,12.917a27.318,27.318,0,0,0-3.908-10.673c3.387,1.753,6.319,3.56,7.828,4.525C1285.109,189.6,1283.65,191.8,1282.041,194.5Zm-11.54-16.742c-.067-.022-.129-.036-.2-.056-.4-.123-.786-.234-1.167-.334-.105-.028-.217-.062-.323-.089-.028-.006-.057-.016-.085-.023l-.134-.032c-.325-.075-.642-.14-.961-.2-.091-.018-.193-.046-.283-.062h-.009c-.253-.044-.492-.077-.732-.112l-.083-.013c-.48-.065-.935-.108-1.371-.128-.089-.005-.175-.005-.262-.008a10.976,10.976,0,0,0-1.2.025c-.019,0-.041,0-.06,0-.765.07-1.5.17-2.208.284-.575-.632-1.645-1.758-3.06-3.065A12.434,12.434,0,0,1,1270.5,177.754Zm-15.612-3.439c.038.03.075.06.115.086,1.424,1.2,2.628,2.368,3.491,3.254a19.944,19.944,0,0,0-3.6,1.42c-2.5-.656-5.221-5.31-6.948-9.331A31.238,31.238,0,0,1,1254.889,174.314Zm-3.976,7.422c-.524.442-1.045.925-1.565,1.437a6.815,6.815,0,0,1-6.282-4.639,1.2,1.2,0,0,0-.056-.132,12.146,12.146,0,0,1-.477-1.451C1245.011,177.544,1248.5,179.833,1250.913,181.736Zm-23.378-9.227c6.667,5.762,11.53,7.2,13.4,7.564a9.441,9.441,0,0,0,6.279,5.4c-.092.107-.183.218-.273.326-.159.189-.317.373-.477.569s-.3.38-.448.569c-.626.793-1.259,1.628-1.911,2.547a5.985,5.985,0,0,0-.841-.062c-.082,0-.168.008-.25.01-.208.005-.416.017-.626.041-.108.013-.218.032-.329.048-.2.032-.4.07-.606.116-.109.025-.218.049-.329.079s-.193.051-.288.079l-4.172-2.828C1236.564,186.889,1227.619,179.93,1227.534,172.509Zm-35.116,26.519a19.235,19.235,0,0,1-7.5-5.28,19.566,19.566,0,0,1-2.88-4.876,42.548,42.548,0,0,1-2.415-7.964,30.462,30.462,0,0,0,2.922,1.691c.019.009.029.027.05.036.515.236,1.037.495,1.58.765,4.083,2.024,9.673,4.8,22.953,3.1,12.112-1.548,23.023,19.3,25.2,23.745-4.06,3.773-4.894,2.962-6.778,1.137-1.711-1.658-4.064-3.928-8.983-3.612a31.831,31.831,0,0,1-16.659-3.487,10.115,10.115,0,0,0-1.655-1.8A23.011,23.011,0,0,0,1192.418,199.028Zm28.9,26.539a11.041,11.041,0,0,0,3.533,6.607,7.879,7.879,0,0,0,4.54,1.689,45.125,45.125,0,0,0-1.211,11.456c-5.356-1.4-8.389-1.193-9.231-1.088-1.288-.173-7.117-.481-15.05,6.483C1204.239,234.653,1216.931,227.547,1221.319,225.567Zm-4.5,41.467a3.222,3.222,0,0,0-.524-.688,46.665,46.665,0,0,0,12.621-6.531c.058.645.114,1.288.175,1.932-5.856,2.456-10.9,8.694-14.06,13.427a16.637,16.637,0,0,1,1.432-4.054C1217.548,269.178,1217.255,267.826,1216.817,267.034Zm3.551-20.3a29.72,29.72,0,0,1,7.826,1.256q.019,1.068.062,2.21c-4.082,2.089-7.11,2.193-8.9,1.914A9.637,9.637,0,0,0,1220.368,246.731Zm-.619,14.913c1.452-1.15,2.14-2.142,2.229-3.219.115-1.408-.8-2.415-1.861-3.58l-.081-.091c.278.018.562.033.868.033a18.069,18.069,0,0,0,7.486-1.793q.1,1.767.258,3.766a42.032,42.032,0,0,1-10.386,6.081C1218.732,262.456,1219.226,262.057,1219.749,261.644Zm-7.912,26.887a8.476,8.476,0,0,0,1.92-4.654c0-.025.051-.758.162-1.861.911-1.72,7.48-13.7,15.445-17.567.479,4.421,1.017,8.65,1.5,12.42.165,1.291.319,2.494.462,3.632a38.1,38.1,0,0,1-5.639,4.414,1.264,1.264,0,0,0-.337.218C1221.62,287.458,1216.7,289.508,1211.837,288.53Zm15.084-1.311a40.334,40.334,0,0,0,4.789-3.574c.172,1.513.275,2.631.321,3.474.248,4.313-3.246,9.137-7.317,12.908C1222.047,294.118,1225.913,288.523,1226.921,287.219Zm27.149,21.225a80.674,80.674,0,0,1-28.97-5.324c3.639-3.111,9.885-9.462,9.5-16.144-.071-1.312-.268-3.214-.64-6.162-.161-1.31-.345-2.744-.542-4.272-.546-4.247-1.164-9.06-1.68-14.069-.166-1.731-.333-3.5-.474-5.242-.325-4.07-.487-7.321-.51-10.232-.069-5.923.395-10.395,1.376-13.294l.086-.015c.189-.033.386-.069.556-.1h0l.035-.006.04-.01c.251-.049.5-.11.763-.178.015-.005.152-.041.167-.044l.193-.058c.209-.062.425-.127.623-.193l.047-.017c.052-.018.106-.039.159-.057.283-.1.572-.2.885-.312s.625-.249.932-.383c.029-.013.056-.019.085-.033,3.32,6.821,8.736,8.334,11.051,8.669.05.241.108.522.181.838.024.083.042.173.063.265l.157.656c.063.207.123.426.189.683.025.088.053.17.079.258.049.173.106.352.161.531.064.207.127.415.194.618s.141.411.215.621.146.418.223.621c.068.183.14.365.213.552.1.258.207.509.313.756.065.15.128.3.2.448.031.069.06.141.09.208a8.815,8.815,0,0,0,.386.8c.021.043.044.076.066.118.233.453.483.9.751,1.345a17.288,17.288,0,0,0,1.032,1.527l.029.037c.008.009.013.02.02.029.094.121.188.231.282.346.081.1.161.2.242.3s.172.192.259.287.187.212.282.312c.011.014.023.02.034.034l0,.005.009.008a3.558,3.558,0,0,0,.33.331c.09.09.177.156.268.239.134.123.268.245.4.36l.063.056c.106.1.222.184.412.329.046.036.078.055.121.088.079.057.156.115.236.17.034.024.082.064.112.081.113.076.226.148.339.216l.095.066h0c.08.051.152.088.228.132l.073.043a5.683,5.683,0,0,0,.529.265c.17.084.34.17.512.242a6.708,6.708,0,0,0,.689.258l.018.005c.145.048.292.089.438.129a4.011,4.011,0,0,0,.479.119c.3.067.614.118.927.156.061.008.12.024.181.029l.077.005c.106.01.213.018.321.025l.064,0a5.115,5.115,0,0,0,.861.02c.174,0,.363,0,.58-.019l.347-.037c.322-.029.642-.074.939-.127l.011,0h.013l.061-.014.06-.011a6.053,6.053,0,0,0,.632-.131c.063-.015.132-.039.2-.055.042-.011.084-.016.126-.028.141-.038.294-.089.441-.132.113-.034.223-.063.34-.1.325-.107.667-.227,1.035-.371l.027-.009h0l.013-.005c.287-.117.557-.233.817-.354l-1.1,4.866a21.484,21.484,0,0,0-3.583,5.459c-.022.038-.043.076-.062.115a28.656,28.656,0,0,0-2.412,15.112,1.249,1.249,0,0,0,.006.136A42.224,42.224,0,0,0,1262.434,292c.388.986.778,1.958,1.18,2.919.019.046.042.091.066.136.486,1.157.985,2.288,1.491,3.4.16.354.324.7.485,1.043.352.759.7,1.514,1.06,2.253.192.4.385.787.578,1.18q.5,1.011.99,2c.212.42.42.831.631,1.244.141.275.282.56.421.833A81.44,81.44,0,0,1,1254.07,308.444Zm24.346-3.728a36.114,36.114,0,0,1-12.472-10.9c-.38-.909-.748-1.83-1.115-2.755a44.225,44.225,0,0,1-1.749-5.586c3.108,2.8,8.843,5.932,18.949,5.932,6.126,0,12.567,3.759,14.559,5.022A80.727,80.727,0,0,1,1278.416,304.716Zm-6.461,1.745c-.206-.4-.414-.807-.622-1.215-.221-.432-.44-.859-.661-1.3-.331-.655-.663-1.33-.992-2l-.175-.355a42.947,42.947,0,0,0,5.531,4.115Q1273.51,306.112,1271.955,306.461Zm24.657-13.035c-3-1.74-8.792-4.6-14.582-4.6-15.038,0-19.215-7.278-19.8-8.469a27.086,27.086,0,0,1,1.2-11.188,17.916,17.916,0,0,0,13.729,8.237c8.071.786,11.877,4.1,12.012,4.221.013.013.019.03.033.043C1289.281,281.739,1295.722,287.394,1296.611,293.427Zm-4.117-36.373c-2.936.234-5.805,3.884-7.346,7.4-1.676,3.823-1.745,7.149-.192,9.128a22.431,22.431,0,0,1,2.452,3.936,29.2,29.2,0,0,0-10-2.668,15.416,15.416,0,0,1-12.725-8.693,18.062,18.062,0,0,1,3.107-4.579,1.29,1.29,0,0,0,.375-.654l1.677-7.426.135-.076a14.411,14.411,0,0,1,7.18-1.839c.34,0,.681.011,1.032.034l.037,0c.225.013.424.033.627.051.146.009.294.027.444.043.258.03.508.063.748.107l.031,0,.052.008c.176.019.352.048.531.079.214.039.438.1.655.142.386.081.773.159,1.153.26.542.138,1.094.291,1.671.47.728.23,1.434.489,2.127.751l1.192.462c.329.124.65.261,1,.41l.035.015.053.023c.7.3,1.363.6,2.023.891l.089.041c.59.255,1.16.511,1.711.759l.237.107c.066.03.129.056.2.084.083.038.165.072.249.108l.051.023C1292.8,256.909,1292.579,257.048,1292.494,257.054Zm10.2,6.847c-2.556,4.149-1.449,8.642-.2,11.514-.132-.033-.253-.071-.388-.1-.192-.043-.368-.1-.548-.147-.968-1.111-4.812-6.593,2.148-17.2.538-.4,1.049-.829,1.517-1.255A16.859,16.859,0,0,1,1302.7,263.9Zm-3.914-3.668a6.952,6.952,0,0,0,.713-.128c-2.583,5.138-2.762,9.1-2.167,11.919-.032-.063-.071-.122-.1-.188C1295.46,267.953,1297.884,262.142,1298.784,260.234Zm11.814,15.243c.193,1.025-.557,2.343-1.263,3.283a13.229,13.229,0,0,0-3.275-2.111,13.882,13.882,0,0,1-2.278-7.926,8.525,8.525,0,0,0,4.085,4.547,6.077,6.077,0,0,0,.99.538C1310.41,274.475,1310.551,275.229,1310.6,275.477Zm-1.664-9.567a18.174,18.174,0,0,0-2.105,3.1,7.143,7.143,0,0,1-.943-5.572,17.876,17.876,0,0,0,1.949-9.007l.1.071c.175.114.366.255.582.413l.59.442c.121.094.248.193.411.33l1.107.921c.015.013.036.015.051.028.583.5,1.24,1.079,2,1.776C1312.57,261.249,1310.644,263.717,1308.934,265.909Zm5.865-12.023c-.641.09-1.667.232-2.914.4a28.919,28.919,0,0,0-2.724-2.06c-.042-.025-.086-.06-.124-.082-.061-.041-.119-.077-.177-.113l-.091-.057-.071-.043a4.756,4.756,0,0,0-.45-.244c-.061-.03-.113-.046-.171-.071-.075-.033-.147-.064-.217-.089a2.128,2.128,0,0,0-.447-.118c-.025,0-.06-.02-.082-.023a1.27,1.27,0,0,0-.524.082h0a1.285,1.285,0,0,0-.444.281c-.008.008-.021.01-.028.018s-.052.057-.084.094l-.008.009-.014.015-.085.107c-.01.014-.021.025-.032.039s-.037.043-.055.066c-.118.154-.318.387-.568.671a26.115,26.115,0,0,1-2.579,2.536c-1.656.148-2.97.236-4.012.269a10.413,10.413,0,0,1-3.551-.963c-.254-.1-.524-.221-.787-.333l-.113-.051c-.222-.091-.446-.184-.67-.284-.453-.2-.916-.406-1.4-.622-.661-.3-1.357-.607-2.073-.918l-.245-.107-.517-.223-.06-.025c-.368-.157-.735-.314-1.2-.5-.074-.033-.148-.065-.207-.086l-.257-.1-1.341-.51c-.515-.179-1.03-.359-1.566-.529h0l-.005,0-.8-.235c-.279-.08-.559-.16-.838-.227l-.081-.022h0c-.047-.013-.1-.023-.141-.034-.083-.022-.166-.042-.248-.061-.531-.135-1.07-.256-1.646-.362l-.092-.014-.051-.011-.15-.024c-.139-.022-.281-.043-.417-.056-.041-.008-.086-.011-.127-.018-.283-.047-.536-.081-.757-.107-.369-.042-.755-.077-1.175-.1a17.711,17.711,0,0,0-2.685.013,17.1,17.1,0,0,0-7.651,2.5h0l0,0c-.436.27-.88.515-1.323.746-1.7-.016-3.518-2-4.483-4.823-1.193-3.492-1.06-8.565,3.238-11.364,8.944-5.827,5.931-12.217,5.172-13.536a1.3,1.3,0,0,0-.122-.192,1.286,1.286,0,0,0-1.8-.242,1.345,1.345,0,0,0-.3,1.72c.72,1.234,2.536,5.61-4.347,10.094-5.536,3.607-5.76,9.986-4.268,14.352a11.148,11.148,0,0,0,3.584,5.323c-.246.065-.489.126-.75.168-.239.044-.479.076-.745.1-.227.022-.456.046-.712.046-.24.006-.473,0-.706-.018l-.255-.02c-.144-.014-.283-.034-.423-.056l-.068-.014-.383-.07c-.127-.028-.252-.06-.377-.094l-.118-.037c-.1-.032-.179-.056-.218-.065-.171-.058-.343-.121-.51-.192-.073-.034-.15-.067-.215-.1a1.276,1.276,0,0,0-.179-.085,2.833,2.833,0,0,1-.434-.222c-.217-.126-.43-.266-.641-.418-.037-.028-.074-.053-.116-.086-.175-.131-.349-.269-.52-.418l-.115-.1c-.211-.187-.42-.385-.626-.6a12.467,12.467,0,0,1-.826-.959c-.024-.03-.048-.058-.071-.089s-.04-.06-.061-.088a14.466,14.466,0,0,1-.85-1.24c-.018-.028-.032-.056-.048-.084-.2-.333-.4-.694-.6-1.076q-.253-.485-.477-.975c-.272-.6-.531-1.218-.772-1.871-.019-.053-.036-.1-.054-.156-.22-.609-.423-1.243-.611-1.889a28.851,28.851,0,0,1-.777-3.361,1.31,1.31,0,0,0-.084-.248,1.293,1.293,0,0,0-.065-.188l0-.005a1.28,1.28,0,0,0-.966-.631c-.052-.006-.1-.028-.15-.029l-.1,0c-.839-.043-7.021-.628-10.216-8.388a1.3,1.3,0,0,0-.73-.712,1.275,1.275,0,0,0-1.021.044l-.034.015c-.36.175-.713.334-1.059.484-.146.065-.282.118-.427.176-.232.1-.464.189-.69.274-.15.055-.3.105-.444.156-.268.093-.534.185-.792.26l-.034.011c-.352.1-.694.189-1.024.259-.176.037-.345.066-.507.1l-.144.025c-.186.032-.371.053-.578.079a5.948,5.948,0,0,1-4.584-1.091c-1.935-1.555-2.617-4.417-2.846-6.545a17.931,17.931,0,0,1-.1-2.664,1.288,1.288,0,0,0-1.481-1.35c-.093.014-9.1,1.353-15.012-2.733-3.133-2.177-3.945-4.742-4.805-7.458-.154-.487-.315-.98-.486-1.472a35.128,35.128,0,0,0,15,2.394c3.8-.245,5.435,1.35,7.027,2.891,1.35,1.31,2.579,2.3,4.178,2.3,1.683,0,3.777-1.1,6.85-4.066a1.288,1.288,0,0,0,.275-1.458c-.52-1.145-12.934-28.015-28.266-26.054a48.991,48.991,0,0,1-11.133.333c.622-.093,1.346-.217,2.165-.358,7.039-1.211,20.138-3.462,29.924,3.2,2.3,1.565,4.331,4.06,6.385,7.849l.013.015c.992,1.82,1.9,3.757,2.785,5.631,1.028,2.186,2,4.251,3.076,6.114,3.76,6.554,10.57,10.685,11.755,10.734h.054a1.266,1.266,0,0,0,.392-.077c.021-.006.044-.005.065-.013a1.249,1.249,0,0,0,.373-.23c.014-.011.032-.017.045-.029a1.286,1.286,0,0,0,.222-.3c.02-.034.051-.06.069-.1a1.262,1.262,0,0,0,.12-.489,1.286,1.286,0,0,0-1.054-1.319,25.66,25.66,0,0,1-9.81-9.466c-1.027-1.774-1.975-3.791-2.979-5.926-.4-.859-.817-1.731-1.24-2.6-.131-.268-.266-.532-.4-.8-.233-.47-.461-.942-.7-1.406l.052-.038a20.848,20.848,0,0,1,2.494-1.542l.046-.023c.282-.146.57-.282.86-.407.089-.039.179-.074.269-.11.215-.088.427-.168.642-.239.15-.049.294-.091.438-.131.163-.044.326-.084.486-.116s.292-.055.43-.071a4.694,4.694,0,0,1,.494-.03c.112,0,.227-.006.333,0a2.828,2.828,0,0,1,.674.132c.019.006.042.008.061.014a1.294,1.294,0,0,0,1.51-.473c.2-.284.388-.546.581-.817s.385-.544.574-.8.385-.51.576-.763c.235-.31.471-.621.7-.913.121-.152.24-.3.361-.445.343-.42.683-.829,1.019-1.211l.068-.077q.6-.68,1.2-1.284h0c.325-.329.642-.629.957-.919.208-.189.416-.377.644-.569.076-.072.164-.136.245-.2a41.809,41.809,0,0,1,11.834,3.575,14.621,14.621,0,0,0-8.136,5c-4.622,5.743-3.635,13.679-3.59,14.014a1.287,1.287,0,0,0,2.551-.338c-.009-.071-.895-7.168,3.043-12.064,2.165-2.691,5.432-4.237,9.711-4.6l.009,0a3.35,3.35,0,0,1,1.608,2.376c0,1.519-.476,2.278-2.007,2.278a2.52,2.52,0,0,1-.541-.052,1.712,1.712,0,0,0,.425-1.132,1.785,1.785,0,0,0-1.79-1.788,1.71,1.71,0,0,0-.849.218,1.645,1.645,0,0,0-.976,1.472c0,.128-.033,3.148,3.627,3.148a3.253,3.253,0,0,0,3.177-3.811,2.99,2.99,0,0,0-.881-1.608,31.282,31.282,0,0,1,7.208,6.944,1.273,1.273,0,0,0-.837.411c-2.528,2.81-15.1,7-19.739,8.375a1.286,1.286,0,1,0,.734,2.466c1.775-.527,17.448-5.266,20.919-9.119a1.288,1.288,0,0,0,.183-.31c.2.32.4.652.592.985-2.23,4.352-4.181,9.09-4.622,13a1.286,1.286,0,0,0,1.134,1.423,1.131,1.131,0,0,0,.146.009,1.288,1.288,0,0,0,1.278-1.142c1.047-9.269,11.867-24.52,11.976-24.673a1.275,1.275,0,0,0,.094-.211c.017-.036.049-.06.063-.1a13.3,13.3,0,0,1,6.563-6.921c.281-.129.584-.24.886-.353.127-.047.243-.1.373-.148a14.258,14.258,0,0,1,4.6-.723c9.06,0,9.855,11.76,9.886,12.26a1.287,1.287,0,0,0,.982,1.177,7.505,7.505,0,0,1,3.776,2.63l.015.018a7.238,7.238,0,0,1,.618.977l.009.014c1.28,2.437,1.275,5.689-.009,9.684-.057-.034-.117-.061-.174-.1q-.465-.276-.943-.518c-.1-.049-.2-.1-.295-.151-.132-.063-.265-.122-.4-.181-.074-.034-.156-.071-.252-.113-.061-.023-.123-.044-.282-.118-.03-.013-.066-.024-.1-.036-.079-.032-.156-.066-.235-.1-.053-.02-.109-.036-.162-.056l-.156-.052c-.066-.023-.121-.046-.19-.07s-.164-.052-.245-.077c-.178-.056-.356-.112-.537-.163-.141-.039-.283-.074-.425-.109l-.152-.039c-.17-.041-.342-.081-.513-.117l-.015,0c-.145-.029-.285-.056-.417-.081-.105-.019-.214-.034-.319-.051-.341-.055-.688-.1-1.037-.128-.124-.013-.246-.032-.372-.041h-.018c-.57-.042-1.151-.052-1.741-.041-.122,0-.245.013-.368.018-.476.018-.956.049-1.444.1-.156.017-.314.039-.471.06-.264.034-.526.056-.793.1-.194.033-.387.082-.58.119s-.41.082-.617.127c-.472.1-.942.217-1.411.347-.089.024-.175.039-.265.065-.028.005-.054.017-.081.023-.01,0-.021,0-.03,0-.051.015-.1.036-.153.051h-.009c-.142.038-.294.09-.442.136l-.268.082c-.036.013-.067.02-.1.033-.122.041-.243.09-.366.133-.294.1-.589.206-.886.317-.194.074-.387.142-.579.218-.019.008-.038.013-.056.02-.31.122-.608.244-.934.386-.1.046-.2.1-.3.142-.406.181-.807.374-1.207.57-.117.058-.233.113-.35.171s-.208.1-.311.148c-.034.018-.07.039-.1.057a43.634,43.634,0,0,0-5.6,3.485l-.089.067q-.92.672-1.773,1.366l-.145.117c-1.183.966-2.268,1.944-3.23,2.905l-.121.124c-.4.4-.771.794-1.125,1.184-.108.118-.21.234-.313.35-.269.306-.521.6-.759.9-.109.136-.225.273-.327.4-.241.311-.458.612-.661.9-.05.072-.115.152-.162.222a38.774,38.774,0,0,1-5.762,6.323c-4.2,3.974-8.535,8.082-8.416,15.234.056,3.353,1,5.456,2.8,6.251a3.679,3.679,0,0,0,.725.226c.054.011.11.02.166.029a4.111,4.111,0,0,0,.613.057c.031,0,.062.009.093.009.014,0,.028,0,.042,0a5.2,5.2,0,0,0,.859-.084c.06-.01.117-.022.177-.034a7.064,7.064,0,0,0,.831-.221c.041-.014.08-.03.119-.044.244-.086.481-.183.713-.287.062-.028.123-.053.184-.082q.358-.169.69-.357c.076-.042.147-.084.222-.127.194-.113.382-.227.557-.34.077-.051.146-.1.219-.147.128-.086.25-.171.364-.253.075-.053.145-.1.212-.152.118-.089.225-.17.321-.246.174-.137.322-.256.411-.334.16-.1.29-.169.438-.258l.051-.03c.185-.108.367-.216.562-.319l.064-.038c.072-.041.158-.093.228-.131.045-.024.085-.042.128-.065.192-.1.368-.183.543-.263a1.161,1.161,0,0,0,.16-.065l.008,0a1.052,1.052,0,0,0,.174-.085l.036-.014c.143-.057.279-.1.415-.147.079-.027.155-.055.25-.081.061-.017.121-.027.181-.041.142-.034.284-.067.424-.088.026,0,.051,0,.076-.008l.025,0c.111-.013.224-.018.335-.022l.092-.005c.1,0,.2-.006.31-.005.186.006.375.018.574.041l.178.019c.212.028.439.063.678.105l.085.014a1.063,1.063,0,0,0,.166.032c.038.009.092.018.125.023l.119.02.684.131c.448.088.952.185,1.509.284.023.005.043.008.067.014a1.4,1.4,0,0,0,.161.027l.062.011.038.008.071.011c.339.058.7.117,1.086.174h.01c1.03.155,2.218.3,3.625.419l.449.03.1.01.575.039c.024,0,.048,0,.072,0,.368.022.731.034,1.088.034.156,0,.3-.018.454-.022.129,0,.268.006.4,0a.28.28,0,0,1,.033,0c.166-.009.325-.033.49-.047s.319-.027.475-.044c.233-.027.466-.056.694-.093.127-.02.251-.048.378-.072s.271-.047.4-.077c.281-.062.554-.14.827-.22.123-.036.25-.067.372-.107l.2-.062a12,12,0,0,0,1.257-.513l.031-.013,0,0a11.243,11.243,0,0,0,4.932-4.677c.028.029.054.06.083.089.466.487.916,1,1.353,1.524.064.075.127.15.189.226.446.542.884,1.093,1.315,1.639a20.865,20.865,0,0,0,4.381,4.6c.129.085.268.143.4.221.254.15.508.3.768.425.077.036.155.057.232.09a8.534,8.534,0,0,0,1.011.376c.05.014.1.02.147.033a8.056,8.056,0,0,0,1.087.223c.1.014.206.014.31.024.24.022.48.055.721.055.048,0,.1-.011.147-.013s.1.009.146.008l.09.213Z" transform="translate(-1176.741 -166.294)" fill="#ebe3d0"/></g></g></svg>