<svg xmlns="http://www.w3.org/2000/svg" width="145.619" height="144.346" viewBox="0 0 145.619 144.346"><g transform="translate(1.607 5.407)" opacity="0.15"><path d="M1280.7,225.267l-2.587-2.665-1.334,1.486a3.583,3.583,0,0,0-.152-1.973,1.963,1.963,0,0,0-1.83-1.4,1.993,1.993,0,0,0-1.831,1.4,2.489,2.489,0,0,0,.005,1.805,1.91,1.91,0,0,0,1.386,1.9,2.068,2.068,0,0,0,.863.008l-2.192,2.441s9.142,11.865,16.774,12.089a77.635,77.635,0,0,0,2.839-7.391S1286.916,234.036,1280.7,225.267Z" transform="translate(-1152.808 -157.23)" fill="#745043"/><path d="M1261.154,217.151a31.048,31.048,0,0,0-6.927,7.043,11.018,11.018,0,0,0,1.068-3.181,1.536,1.536,0,0,0,1.012-1.239c.03-.175.045-.338.067-.505h0v-.014c.016-.127.039-.258.051-.381l.007-.015a5.284,5.284,0,0,0-.556-4.738,1.994,1.994,0,0,0-2.071-.88,1.942,1.942,0,0,0-2.478,2.282c.762,3.124.483,6.524-1.975,8.9-1.177,1.137-3.024,1.571-4.188,2.737a8.827,8.827,0,0,0-2.582,4.831c-.745,4.123.93,9.906,4.916,11.836a1.9,1.9,0,0,0,1.234.167c1.576,1.484,3.991-1.071,2.5-2.868-1.363-1.641-2.933-3.486-3.3-5.656a8.207,8.207,0,0,1,.168-2.017c.413-1.766,1.692-2.871,3.084-3.927a2.175,2.175,0,0,0,.275-.253,5.577,5.577,0,0,0-.316,2.173c.392,4.038.886,7.684,3.8,6.545a19.057,19.057,0,0,0,4.443-2.329s1.665-12.635,18.361-16.238a1.85,1.85,0,0,0,1.433,3.044c2.967-.144,5.734.12,7.889,2.368,1.769,1.846,2.845,4.4,4.014,6.64,1.9,3.631,3.627,6.1,7.712,7.235,2.359.657,3.365-3.005,1.01-3.661-5.259-1.466-6.383-8.687-9.7-12.489a11.082,11.082,0,0,0-7.8-3.845c.844-.084,1.707-.154,2.612-.195,2.341-7.912,11.3-13.811,11.3-13.811L1292.1,198s-2.987-.481-7.963,1.089l1.178.127-3,10.013-4.027-7.216,1.1-1.025c-.431.2-.86.418-1.3.658a48.592,48.592,0,0,0-7.317,4.836C1265.762,210.441,1264.951,214.644,1261.154,217.151Zm-9.177,10.761a2.266,2.266,0,0,0-.115-.7,1.78,1.78,0,0,0,.05-.182,8.674,8.674,0,0,0,1.091-1.011A19.139,19.139,0,0,0,1251.977,227.912Z" transform="translate(-1160.888 -163.289)" fill="#745043"/><path d="M1220.691,220.1c-1.227-.333-3.588-.723-4.564-1.622-1.1-1.019-1.332-3.3-1.468-4.69-.166-1.665-2.658-2.846-3.54-.958-.07.151-.112.3-.173.452-1.016-.709-2.568-.567-2.792.963-.488,3.337,1.326,5.54,3.484,7.871,2,2.162,4.233,4.043,7.153,4.757a1.906,1.906,0,0,0,2.356-1.868,4.5,4.5,0,0,0-.457-4.905Z" transform="translate(-1170.018 -159.583)" fill="#745043"/><path d="M1219.138,229.559l-7.837-.646a1.712,1.712,0,0,0-1.733,2.351,1.758,1.758,0,0,0,1.073,2.723,60.775,60.775,0,0,0,7.607,1.178,1.636,1.636,0,0,0,1.8-1.962A1.988,1.988,0,0,0,1219.138,229.559Z" transform="translate(-1169.697 -155.053)" fill="#745043"/><path d="M1285.741,281.042c-.561-.295-1.106-.556-1.649-.808a1.962,1.962,0,0,0,2.074-2.366c-1.332-5.961-4.735-10.949-10.335-13.661-6.376-3.09-17.7-.866-21.529-8.179,1.394-3.527,3.8-6.75,5.537-10.261a22.64,22.64,0,0,1,15.362,2.042,1.946,1.946,0,0,0,2.734-1.1c4.551-3.127,4.674-4.977,4.674-4.977l-13.129-4.786-9.26,1.144-5.089,2.115-6.443,1.3-5.3-1.691-3.437-5.971-2.361-7.726s-9.192-1.639-11.474-9.164l-6.341,2.49-1.4,8.25s4.97.482,6.909-1.134c2.585,5.213,7.017,5.213,7.017,5.213s7.4,22.147,21.2,17.112a19.408,19.408,0,0,0,3.013-5.969s.145-.018.395-.044a1.8,1.8,0,0,0-.409,1.41c-2.87,6.654-7.941,11.263-6.894,19.612a60.443,60.443,0,0,0,1.277,6.821,1.9,1.9,0,0,0-1.031,3.189,16.255,16.255,0,0,0,2.54,2.07,122.863,122.863,0,0,0,4.6,11.765,1.773,1.773,0,0,0,.629,2.558,6.084,6.084,0,0,1,.771.559c.125.276.247.549.373.824a1.511,1.511,0,0,0,1.6.967,6.928,6.928,0,0,0,1.295.957c2.147,1.171,4.065-2.106,1.917-3.279a9.623,9.623,0,0,1-2.031-1.66c-1.58-3.457-3.2-7.024-4.6-10.68a31.165,31.165,0,0,0,3.633.755c7.844,1.2,16.177,1.875,23.242,5.589C1285.986,285.457,1287.908,282.181,1285.741,281.042Zm-30.43-7.821a45.937,45.937,0,0,1-2.105-11.22c-.019-.411-.008-.813.01-1.211,2.43,2.234,5.8,3.474,9.028,4.319,3.036.8,6.218.771,9.236,1.563,6.022,1.581,9.707,6.313,11.024,12.206a1.772,1.772,0,0,0,.447.857c-4.156-1.753-7.987-2.423-12.818-3.181C1265.5,275.828,1259.634,275.534,1255.311,273.221Z" transform="translate(-1167.278 -158.233)" fill="#745043"/><path d="M1231.92,184.548c2.165,1.129,4.086-2.147,1.916-3.28a12.81,12.81,0,0,1-4.8-4.236c-1.354-2.02-4.643-.122-3.279,1.917A16.722,16.722,0,0,0,1231.92,184.548Z" transform="translate(-1165.404 -169.075)" fill="#745043"/><path d="M1241.7,176.021a1.9,1.9,0,1,0,3.279-1.917,19.84,19.84,0,0,0-2.286-2.993A1.9,1.9,0,0,0,1240,173.8,13.286,13.286,0,0,1,1241.7,176.021Z" transform="translate(-1161.672 -170.565)" fill="#745043"/><path d="M1217.035,206.338c2.354.51,5.013.689,7.175,1.868.785.428,1.236,1.32,2.084,1.738,4.06,2,8.288-3.45,5.109-6.7a1.994,1.994,0,0,0-1.307-.563c.879-4.509-6.768-12.716-9-14.781a21.666,21.666,0,0,0-13.323-6.045c-3.191-.181-6.321.68-9.509.739-1.643.03-3.285-.053-4.928-.158a1.464,1.464,0,0,0-.742-.385,23.284,23.284,0,0,1-5.065-1.441,2.212,2.212,0,0,0-1.887,0l-4.809-3.289c-1.5-1.023-3.056.661-2.789,2.144a14.849,14.849,0,0,0,2.927,6.2,1.789,1.789,0,0,0,.166,1.467,25.113,25.113,0,0,0,7.035,8.232c2.426,1.8,7.411,2.748,10.26,4.607a1.468,1.468,0,0,0,.876,1.994l2.178.928a2.061,2.061,0,0,0,.979.143,16.138,16.138,0,0,0,6.384,1.852C1211.644,205.231,1214.291,205.745,1217.035,206.338Zm4.858-7.14-.3-.289c.01-.011.023-.021.033-.033.112.106.221.214.332.322C1221.935,199.2,1221.914,199.2,1221.893,199.2Z" transform="translate(-1178.011 -168.851)" fill="#745043"/><path d="M1269.516,221.072c-.852.853-1.678,1.729-2.469,2.641-.424.49-1.2,1.8-1.91,1.875a1.954,1.954,0,0,0-1.9,1.9,1.911,1.911,0,0,0,1.9,1.9c3.208-.346,4.957-3.517,7.065-5.628A1.9,1.9,0,0,0,1269.516,221.072Z" transform="translate(-1155.351 -157.284)" fill="#745043"/><path d="M1258.27,186.6c.13,1.452.38,2.838.446,3.667a1.973,1.973,0,0,0,2.365,1.808,1.85,1.85,0,0,0,1.809-1.376,10.731,10.731,0,0,1,.436-1.639.227.227,0,0,0,.018-.027c.083-.191.161-.41.236-.641a7.783,7.783,0,0,1,1.075-1.789,2.205,2.205,0,0,0,.518-1.619,1.846,1.846,0,0,0-1.771-2.774,2.718,2.718,0,0,0-2.341-1.3,2.526,2.526,0,0,0-1.567.41c-.145-.27-.3-.537-.434-.811-1.105-2.18-4.382-.261-3.278,1.918A36.955,36.955,0,0,0,1258.27,186.6Z" transform="translate(-1157.393 -168.176)" fill="#745043"/><path d="M1239.5,213.342a1.949,1.949,0,0,0,.544-.029c2.143.091,2.964-3.241.679-3.7-10.213-2.033-13.067-14.4-16.813-22.749a1.665,1.665,0,0,0-2.842-.346,1.641,1.641,0,0,0-1.5,2.27C1223.62,199.343,1226.229,212.1,1239.5,213.342Z" transform="translate(-1166.997 -166.492)" fill="#745043"/><path d="M1235.959,184.05a28.875,28.875,0,0,1,20.872,12.535,1.871,1.871,0,0,0,1.926.818c-4.553,4.2-12.377,6.448-17.942,6.281-2.445-.073-2.442,3.724,0,3.8a32.171,32.171,0,0,0,15.91-4.058,24.372,24.372,0,0,0-.883,5.865,1.854,1.854,0,0,0,2.793,1.612,1.638,1.638,0,0,0,1.825-1.352c.462-2.1.939-4.205,1.535-6.271a21.277,21.277,0,0,1,3.042-5.652,1.789,1.789,0,0,0-1.315-2.75,2.222,2.222,0,0,0-.969-.486,1.654,1.654,0,0,0-.308-2.2c-7.238-6.69-15.251-12.137-25.3-13.03a1.542,1.542,0,0,0-1.721,1.109C1233.557,180.59,1233.745,183.811,1235.959,184.05Zm24.47,11.511a1.661,1.661,0,0,0-.048-.292,1.837,1.837,0,0,0,.22.07C1260.546,195.414,1260.484,195.486,1260.429,195.561Z" transform="translate(-1163.085 -168.281)" fill="#745043"/><path d="M1223.108,258.883a1.7,1.7,0,0,0-1.746-.413c-3.96,1.657-7.588,4.243-8.7,8.619a1.845,1.845,0,0,0,.053,1.139c-.184.222-.368.444-.554.666-1.558,1.862,1.116,4.562,2.686,2.685,2.851-3.406,5.512-6.862,8.969-9.7C1225.073,260.858,1224.31,259.346,1223.108,258.883Z" transform="translate(-1169.055 -147.219)" fill="#745043"/><path d="M1223.931,244.558c-2.53-6.475-13.754,8.692-15.7,10.74a1.842,1.842,0,0,0,.044,2.634q-2.117,2.725-4.03,5.605c-1.354,2.043,1.933,3.947,3.279,1.918a77.36,77.36,0,0,1,10.729-12.985C1219.941,250.836,1225.123,247.608,1223.931,244.558Z" transform="translate(-1171.122 -151.316)" fill="#745043"/><path d="M1282.968,237.173c-.008-2.443-3.806-2.447-3.8,0,.008,1.953-.874,3.762-1.235,5.665a23.25,23.25,0,0,0-.351,5.646c.135,2.43,3.933,2.446,3.8,0a19.31,19.31,0,0,1,.612-6.312A18.3,18.3,0,0,0,1282.968,237.173Z" transform="translate(-1151.546 -153.342)" fill="#745043"/><path d="M1283.545,254.476c-1.844-1.305-4.256-2.781-4.569-5.234a1.964,1.964,0,0,0-1.9-1.9,1.909,1.909,0,0,0-1.9,1.9c.52,4.074,3.269,6.262,6.45,8.513C1283.626,259.17,1285.527,255.878,1283.545,254.476Z" transform="translate(-1152.178 -150.15)" fill="#745043"/></g><path d="M1270.8,201.23l-.2.2v-.57Z" transform="translate(-1151.786 -157.102)" fill="#745043"/><g transform="translate(0 0)"><path d="M1273.2,188.384a3.889,3.889,0,1,0-3.888-3.889A3.889,3.889,0,0,0,1273.2,188.384Z" transform="translate(-1152.128 -162.489)" fill="#745043"/><path d="M1322.234,245.86c.012-.027.016-.056.027-.082a1.322,1.322,0,0,0,.079-.361c0-.023.014-.042.015-.066.135-6.874-1.915-12.042-6.1-15.362-3.725-2.956-8.5-3.956-12.752-4.133,1.216-3.093,5.856-7.931,9.5-11.175a18.339,18.339,0,0,1,1.545,6.5,1.284,1.284,0,0,0,2.214.844c4.391-4.629,2.295-11.269,1.582-13.126,1.9-5.191,2-9.509.259-12.822a10.1,10.1,0,0,0-5.168-4.626c-.557-5.217-3.68-13.778-12.35-13.778a17,17,0,0,0-4.339.541,15.889,15.889,0,0,0-9.79,7.838c-.851-.543-2.1-1.318-3.587-2.185l-.114-.066q-.661-.384-1.38-.787l-.26-.147q-.685-.382-1.414-.77c-.1-.056-.2-.109-.3-.163q-.8-.423-1.633-.844c-.056-.028-.109-.057-.165-.085-.585-.292-1.181-.58-1.784-.862-.254-.119-.512-.23-.77-.347-.306-.138-.61-.279-.917-.413-1.215-2.122-7.179-11.126-18.835-7.5a27.921,27.921,0,0,0-9.929-5.548,1.283,1.283,0,0,0-1.537,1.661,40.717,40.717,0,0,0,4.635,9.3c-2.632-1.7-5.859-3.328-8.317-3.048a1.284,1.284,0,0,0-1.133,1.394,11.883,11.883,0,0,0,.237,1.468c-2.394-.787-6.789-2.834-12.442-8.155a1.282,1.282,0,0,0-2.121.614c-2.53,9.816,9.252,18.995,9.817,19.425l2.839,1.927a22.5,22.5,0,0,0-2.333,1.454,22.154,22.154,0,0,0-6.448-7.427c-10.616-7.231-24.872-4.78-31.722-3.6-1.1.189-2.027.348-2.741.435a21.659,21.659,0,0,1-9.2-.823l-.072-.02a8.414,8.414,0,0,1-1.574-.629c-.035-.016-.073-.037-.11-.053h0a37.856,37.856,0,0,1-4.846-3.084,1.284,1.284,0,0,0-2.056,1.063c.154,5.089,2.809,11.326,2.935,11.62a22,22,0,0,0,3.3,5.527,21.6,21.6,0,0,0,8.34,5.9,20.535,20.535,0,0,1,5.227,3.071,7.452,7.452,0,0,1,1.382,1.535c.013.02.03.042.047.063a16.014,16.014,0,0,1,1.735,4.129c.9,2.86,1.931,6.1,5.776,8.774,5.256,3.631,12.306,3.553,15.344,3.313.007.187.019.4.031.61-4.168,1.81-20.873,10.37-19.527,30.7a1.283,1.283,0,0,0,2.189.823c6.856-6.869,12.137-7.728,14.155-7.767.093,1.576-.034,4.16-1.438,4.713-.043.018-.072.054-.113.076a1.25,1.25,0,0,0-.267.18,1.236,1.236,0,0,0-.147.167,1.134,1.134,0,0,0-.113.128.952.952,0,0,0-.043.128c-.016.035-.048.061-.061.1s0,.081-.014.122a1.251,1.251,0,0,0-.034.3,1.181,1.181,0,0,0,.015.214,1.217,1.217,0,0,0,.1.3,1.326,1.326,0,0,0,.044.138,19.039,19.039,0,0,0,2.5,3.246c.544.6,1.22,1.343,1.195,1.637-.007.073-.1.487-1.256,1.406-3.927,3.11-6.433,5.436-6.538,5.533a1.173,1.173,0,0,0-.151.189c-.02.027-.044.049-.062.077a1.309,1.309,0,0,0-.165.411c-.006.03,0,.061-.007.091a1.229,1.229,0,0,0,.005.373.441.441,0,0,0,0,.068c0,.023.02.04.026.063s.009.07.02.1a1.241,1.241,0,0,0,.085.154,1.034,1.034,0,0,0,.067.125,1.308,1.308,0,0,0,.192.215,1.059,1.059,0,0,0,.082.08,1.28,1.28,0,0,0,.349.2c.018.006.037.005.053.011a1.358,1.358,0,0,0,.313.063c.6.03,1.847.319,2.152.873.233.42-.119,1.171-.348,1.581-2.41,4.3-2.995,13.434-3.014,13.772-.067.66-.495,2.686-1.541,3.341a1.817,1.817,0,0,1-1.748.014,1.283,1.283,0,0,0-1.077,2.32,15.136,15.136,0,0,0,7.612,2.023,20.573,20.573,0,0,0,8.194-1.884,13.885,13.885,0,0,0,.04,12.237c-.3.243-.6.481-.9.71a1.283,1.283,0,0,0,.29,2.205,83.869,83.869,0,0,0,49.31,4.485h0c2.414-.51,4.8-1.129,7.1-1.838a83.116,83.116,0,0,0,20.857-9.723,1.283,1.283,0,0,0,.119-2.067q-.191-.159-.387-.319c.28-7.131-6.577-13.8-8.1-15.183a25.946,25.946,0,0,0-4.179-7.967c-.905-1.152-.7-3.7.523-6.489,1.525-3.481,3.875-5.748,5.184-5.852a3.687,3.687,0,0,0,2.791-2.187,14.714,14.714,0,0,0,1.728.505,1.3,1.3,0,0,0-.4.449c-.189.349-4.59,8.647-1.939,14.477,1.145,2.519,3.378,4.172,6.635,4.913,5.079,1.154,6.713,3.534,6.719,3.544a1.291,1.291,0,0,0,.936.594c.051.005.1.008.152.008a1.283,1.283,0,0,0,.9-.365c.354-.346,3.437-3.466,2.856-6.588a4.89,4.89,0,0,0-3.246-3.556c-.619-.266-.879-.515-.912-.647-.141-.552,1.094-2.137,2-3.294,1.978-2.534,4.438-5.686,4.272-9.679a1.287,1.287,0,0,0-.408-.887c-.128-.119-.266-.243-.4-.363.9-.125,1.451-.205,1.451-.205a1.287,1.287,0,0,0,1-.779l2.451-5.9a1.279,1.279,0,0,0,0-.992l-.094-.224a7.931,7.931,0,0,0,3.058-1.936c.014-.013.028-.024.04-.037s.026-.02.036-.032A1.251,1.251,0,0,0,1322.234,245.86Zm-24.743-4.076c-.2.081-.4.168-.606.238l-.078.028c-.085.027-.172.051-.258.076a10.839,10.839,0,0,1-1.075.253c-.034.006-.069.014-.1.019-.082.014-.167.025-.25.038-.363.053-.734.092-1.117.115-.1.006-.209.016-.315.02-.057,0-.118,0-.175,0a40.643,40.643,0,0,0,3.666-5.722A9.738,9.738,0,0,1,1297.491,241.784Zm-7.1.63-.108-.009c-.506-.042-.986-.1-1.432-.154l-.936-.127c-.051-.009-.106-.015-.165-.021l-.125-.019c1.109-1.546,3.7-4.714,7.022-5.919A47.41,47.41,0,0,1,1290.389,242.415Zm9.238-6.305a9.351,9.351,0,0,1,2.122,1.1c.115.078.215.173.325.256a9.278,9.278,0,0,1-1.844,2.555A12.494,12.494,0,0,0,1299.627,236.109Zm17.592,9.912q-.146.03-.3.053a5.8,5.8,0,0,1-4.161-.951A19.352,19.352,0,0,1,1309,241.1a34.768,34.768,0,0,0-4.493-4.981,13.052,13.052,0,0,0-1.313-1.028,10.776,10.776,0,0,0-4.945-1.894c-.067-.106-.124-.211-.195-.316a1.271,1.271,0,0,0-2.284.361c-.208.032-.419.057-.629.1-5.877,1.286-9.88,7.585-10.288,8.246l-.122-.023c-.391-.076-.75-.142-1.1-.2h0a1.117,1.117,0,0,0-.158-.03l-.406-.065c-.05-.009-.1-.015-.15-.019a.526.526,0,0,0-.062-.008c-.029-.005-.062-.009-.093-.013l-.312-.035h-.015l-.018,0-.032,0c-.04-.006-.088-.011-.133-.015l-.128-.011a1.2,1.2,0,0,0-.164-.018c-.237-.009-.48-.008-.734,0-.083,0-.168.009-.253.014s-.146.005-.229.011c-.049.006-.1.017-.156.023l-.155.018c-.056.009-.116.022-.173.03-.031.005-.058.008-.092.014a.976.976,0,0,0-.263.053l-.043.01-.123.032c-.076.018-.157.035-.222.054l-.034.011c-.086.025-.176.054-.263.082-.027.009-.054.014-.082.024,1.75-3.892,5.959-10.517,14.7-12.2.432-.086.888-.142,1.343-.2.255-.033.5-.078.758-.1.7-.063,1.426-.1,2.17-.1h.031c.044,0,.086.009.129.01a8.363,8.363,0,0,1,1.231.106c.152.024.3.07.447.1.289.063.577.128.854.218.149.048.294.11.439.166.27.1.535.206.794.329.141.067.277.142.415.215.247.132.492.267.729.415.142.089.278.18.417.273.212.146.422.294.625.448q.233.177.456.362c.161.132.316.266.47.4.185.164.366.33.541.5.092.09.182.179.271.268.222.224.44.451.647.681l.076.084a26.052,26.052,0,0,1,3.188,4.517l.018.033c.074.132.13.238.185.341l.062.116.036.073c.037.071.072.141.094.185a10.85,10.85,0,0,0,2.543,4.419c.058.063.124.123.184.185.187.19.383.375.59.557.13.114.261.228.4.339.262.208.537.409.829.6.056.035.1.078.158.114.17.105.35.189.524.282.08.044.158.089.241.13.227.116.462.223.7.323.106.044.215.086.324.128C1316.919,245.9,1317.064,245.97,1317.219,246.021ZM1314.661,232c3.257,2.585,4.978,6.607,5.123,11.966h-.01c-.057-.006-.107-.02-.165-.028a9.327,9.327,0,0,1-.962-.184c-.129-.032-.25-.072-.375-.109-.232-.068-.462-.146-.684-.233-.123-.048-.244-.1-.36-.149a7.69,7.69,0,0,1-.784-.406c-.043-.025-.091-.047-.133-.072a7.629,7.629,0,0,1-.873-.642l-.12-.1a8.986,8.986,0,0,1-2.583-4.009l-.005-.018a1.369,1.369,0,0,0-.082-.237c-.155-.334-2.863-6.018-7.7-9.238A18.234,18.234,0,0,1,1314.661,232Zm-13.818-6.153a39.264,39.264,0,0,0-7.643.984c-12.413,2.448-16.633,13.788-17.445,16.4l-.01,0-.01.008-.015.009c-.035.023-.067.049-.1.073s-.052.034-.075.054a11.23,11.23,0,0,1-1.015.777c-1.214.832-2.885,1.675-3.832,1.257-.765-.338-1.223-1.771-1.258-3.929-.1-6,3.464-9.379,7.592-13.288a40.63,40.63,0,0,0,6.117-6.742c.067-.1.152-.208.223-.31.17-.241.341-.481.541-.737.1-.125.207-.254.311-.381.218-.267.445-.538.693-.818.1-.115.209-.232.316-.349q.427-.465.9-.948c.1-.1.192-.2.294-.295.41-.405.842-.815,1.3-1.228l.058-.053c.459-.41.947-.823,1.45-1.234.188-.154.386-.306.58-.459q.484-.384.991-.761c.236-.176.473-.351.715-.523.359-.257.729-.508,1.1-.757.209-.141.413-.282.625-.419.4-.261.826-.508,1.246-.757,2.176,1.758,3.639,5.764,4.043,7.283a1.281,1.281,0,0,0,1.1.946,1.024,1.024,0,0,0,.139.009,1.287,1.287,0,0,0,1.141-.7,22.519,22.519,0,0,0,2.2-11.2c.151-.037.3-.08.455-.113.19-.042.379-.081.57-.118q.571-.11,1.131-.186c.205-.028.408-.054.611-.075.343-.037.683-.06,1.019-.076.225-.011.452-.02.674-.023.281,0,.557.008.831.019a32.458,32.458,0,0,1,3.431,5.085C1309.3,214.5,1302.112,221.118,1300.842,225.847Zm-1.034-11.142a16.129,16.129,0,0,0-2.943-4.59c.248-.124.5-.247.747-.365.213-.1.425-.2.637-.3q.576-.258,1.157-.491c.181-.073.361-.143.541-.211.031-.013.062-.023.094-.034.188-.072.379-.137.568-.2A18.618,18.618,0,0,1,1299.808,214.7Zm16.769,2.555a29.317,29.317,0,0,0-4.448-9.425c.063.02.129.033.191.053l.106.039c.388.134.769.289,1.143.458l.227.1c.342.165.677.347,1.007.541.09.053.182.1.265.156.295.182.581.385.864.592A13,13,0,0,1,1316.577,217.259Zm-61.1-35.72.049-.024.013-.005c.055-.03.114-.054.168-.083.37-.2.748-.386,1.144-.56.116-.051.24-.092.36-.141.351-.144.706-.282,1.079-.406a20.015,20.015,0,0,1,2.613-.678l.053-.011a25.83,25.83,0,0,1,2.672-.378c.11-.009.231-.01.346-.015s.218-.013.33-.014a13.18,13.18,0,0,1,2.349.233c.083.015.169.038.254.054.359.07.727.148,1.115.246.113.029.23.065.345.1.347.094.7.2,1.07.311.182.057.368.118.556.181.3.1.613.21.925.324.236.086.467.168.711.263.3.115.614.244.924.372.136.056.267.106.4.165.951,1.047,5.951,6.931,6.4,14.908C1272.209,186.162,1261.03,182.678,1255.482,181.539Zm26.285,12.883a27.235,27.235,0,0,0-3.9-10.645c3.379,1.748,6.3,3.551,7.808,4.513C1284.826,189.536,1283.372,191.73,1281.766,194.422Zm-11.51-16.7c-.067-.021-.129-.035-.2-.056-.4-.123-.783-.233-1.164-.333-.1-.028-.217-.062-.322-.089-.028-.006-.057-.016-.085-.023l-.135-.032c-.324-.075-.64-.139-.959-.2-.091-.018-.192-.046-.281-.062h-.009c-.252-.044-.492-.077-.731-.111l-.082-.013c-.479-.065-.933-.108-1.367-.128-.089-.005-.175-.005-.263-.008a10.939,10.939,0,0,0-1.2.025c-.019,0-.041,0-.06,0-.764.07-1.491.17-2.2.284-.574-.63-1.641-1.753-3.052-3.057A12.4,12.4,0,0,1,1270.257,177.724Zm-15.572-3.431c.038.03.075.06.116.086,1.42,1.2,2.621,2.362,3.482,3.246a19.9,19.9,0,0,0-3.6,1.417c-2.491-.654-5.207-5.3-6.929-9.307A31.148,31.148,0,0,1,1254.685,174.293Zm-3.966,7.4c-.523.441-1.042.923-1.561,1.433a6.8,6.8,0,0,1-6.266-4.627,1.166,1.166,0,0,0-.056-.132,12.068,12.068,0,0,1-.476-1.447C1244.833,177.515,1248.317,179.8,1250.72,181.7Zm-23.318-9.2c6.65,5.747,11.5,7.185,13.367,7.545a9.416,9.416,0,0,0,6.262,5.386c-.091.106-.182.218-.272.325-.158.189-.316.372-.475.567s-.3.379-.447.567c-.624.791-1.256,1.624-1.906,2.541a5.977,5.977,0,0,0-.839-.062c-.081,0-.167.008-.249.01-.208.005-.416.016-.624.041-.107.013-.218.032-.328.048-.2.032-.4.07-.6.115-.109.025-.218.049-.328.078s-.193.051-.287.078l-4.161-2.82C1236.408,186.836,1227.486,179.895,1227.4,172.493Zm-35.024,26.449a19.183,19.183,0,0,1-7.483-5.266,19.523,19.523,0,0,1-2.873-4.864,42.453,42.453,0,0,1-2.409-7.943,30.356,30.356,0,0,0,2.914,1.686c.019.009.029.027.049.035.515.235,1.034.494,1.576.763,4.072,2.019,9.647,4.788,22.894,3.093,12.08-1.544,22.963,19.253,25.138,23.684-4.049,3.763-4.882,2.955-6.76,1.134-1.706-1.653-4.053-3.918-8.96-3.6a31.746,31.746,0,0,1-16.616-3.477,10.067,10.067,0,0,0-1.651-1.8A22.96,22.96,0,0,0,1192.377,198.943Zm28.826,26.47a11.011,11.011,0,0,0,3.524,6.59,7.857,7.857,0,0,0,4.528,1.685,45.028,45.028,0,0,0-1.207,11.426c-5.342-1.394-8.367-1.19-9.207-1.085-1.285-.172-7.1-.48-15.011,6.466C1204.167,234.475,1216.826,227.387,1221.2,225.412Zm-4.49,41.359a3.222,3.222,0,0,0-.522-.686,46.558,46.558,0,0,0,12.588-6.514c.058.643.114,1.285.175,1.927-5.841,2.449-10.868,8.671-14.024,13.392a16.617,16.617,0,0,1,1.428-4.043C1217.442,268.91,1217.149,267.561,1216.712,266.771Zm3.542-20.25a29.643,29.643,0,0,1,7.806,1.253q.019,1.065.062,2.2c-4.071,2.084-7.091,2.188-8.881,1.909A9.615,9.615,0,0,0,1220.254,246.521Zm-.618,14.874c1.449-1.147,2.135-2.137,2.224-3.21.115-1.4-.8-2.409-1.856-3.571l-.081-.091c.277.018.561.033.865.033a18.021,18.021,0,0,0,7.466-1.789q.1,1.762.257,3.756a41.92,41.92,0,0,1-10.359,6.065C1218.623,262.205,1219.115,261.808,1219.636,261.4Zm-7.891,26.817a8.455,8.455,0,0,0,1.915-4.642c0-.025.051-.756.162-1.856.909-1.715,7.461-13.663,15.4-17.521.477,4.409,1.014,8.627,1.5,12.388.165,1.287.318,2.487.461,3.623a37.98,37.98,0,0,1-5.624,4.4,1.259,1.259,0,0,0-.337.218C1221.5,287.142,1216.6,289.187,1211.745,288.212Zm15.045-1.308a40.24,40.24,0,0,0,4.776-3.565c.17,1.509.274,2.624.32,3.465.247,4.3-3.237,9.113-7.3,12.874C1221.929,293.786,1225.785,288.2,1226.79,286.9Zm27.079,21.169a80.468,80.468,0,0,1-28.9-5.31c3.63-3.1,9.86-9.437,9.475-16.1-.071-1.309-.267-3.205-.638-6.146-.161-1.306-.344-2.737-.54-4.261-.544-4.236-1.161-9.036-1.676-14.032-.166-1.727-.331-3.49-.472-5.228-.324-4.06-.486-7.3-.509-10.206-.069-5.908.394-10.368,1.372-13.259l.087-.015c.189-.033.385-.068.554-.1h0l.036-.006.039-.01c.251-.049.5-.11.761-.177.015-.005.152-.04.167-.044l.193-.058c.208-.062.424-.127.621-.192l.047-.016c.052-.018.106-.039.158-.057.282-.095.571-.2.882-.311s.623-.248.929-.382c.029-.013.056-.019.085-.033,3.312,6.8,8.714,8.312,11.022,8.646.05.241.108.52.18.835.024.082.042.172.063.265l.157.654c.062.206.123.425.189.681.025.087.052.17.078.257.049.172.107.351.161.529.063.206.127.414.194.617s.14.41.214.619.145.416.223.619c.069.182.14.365.212.551.1.257.207.508.313.754.065.149.128.3.2.447.031.068.06.14.09.208.12.285.258.571.384.8.022.043.044.076.066.118.232.452.482.9.749,1.342a17.122,17.122,0,0,0,1.029,1.523l.029.037c.007.009.013.02.021.029.094.12.187.23.281.346.082.1.161.2.242.3s.172.191.258.286.186.211.281.311c.012.014.023.02.034.034l0,.005.009.008a3.521,3.521,0,0,0,.329.33c.09.09.176.156.267.238.134.123.267.244.4.359l.062.056c.106.095.221.184.411.328.046.035.078.054.12.087.078.057.156.115.236.17.034.024.081.063.111.081.113.076.225.148.338.215l.095.066h0c.079.051.152.087.226.132l.074.043a5.645,5.645,0,0,0,.528.265c.169.084.339.17.511.242a6.63,6.63,0,0,0,.687.257l.017.005c.145.048.291.089.437.129a3.973,3.973,0,0,0,.477.119c.3.067.613.118.925.156.061.008.119.024.18.029l.077.005c.106.01.212.018.32.025l.063,0a5.108,5.108,0,0,0,.858.02c.174,0,.362,0,.578-.019l.345-.037c.322-.029.641-.073.937-.127l.011,0h.013l.061-.014.06-.011a6.049,6.049,0,0,0,.631-.13c.063-.015.132-.039.195-.054.042-.011.083-.017.125-.028.14-.038.294-.089.439-.132.113-.034.223-.063.339-.1.324-.106.664-.227,1.032-.37l.027-.009h0l.013-.005c.286-.117.555-.233.815-.353l-1.1,4.853a21.432,21.432,0,0,0-3.574,5.445c-.021.038-.043.076-.062.115a28.575,28.575,0,0,0-2.4,15.073,1.273,1.273,0,0,0,.006.135,42.069,42.069,0,0,0,2.741,11.144c.387.984.776,1.953,1.177,2.912a1.3,1.3,0,0,0,.066.135c.485,1.155.982,2.282,1.487,3.394.16.353.323.694.483,1.041.351.757.7,1.51,1.057,2.247.191.4.383.785.576,1.177q.494,1.008.988,1.994c.211.419.419.829.629,1.241.14.275.281.558.42.831A81.231,81.231,0,0,1,1253.869,308.074Zm24.282-3.718a36.031,36.031,0,0,1-12.44-10.874c-.379-.906-.746-1.825-1.111-2.748a44.143,44.143,0,0,1-1.745-5.571c3.1,2.793,8.82,5.917,18.9,5.917,6.11,0,12.535,3.75,14.521,5.009A80.509,80.509,0,0,1,1278.151,304.356Zm-6.445,1.741c-.2-.4-.413-.805-.62-1.211-.22-.43-.439-.857-.66-1.295-.33-.653-.66-1.327-.99-2l-.175-.354a42.9,42.9,0,0,0,5.517,4.1Q1273.258,305.748,1271.706,306.1Zm24.593-13c-2.991-1.736-8.769-4.584-14.544-4.584-15,0-19.164-7.259-19.744-8.447a27.025,27.025,0,0,1,1.2-11.159,17.871,17.871,0,0,0,13.693,8.216c8.05.784,11.846,4.091,11.981,4.21.012.013.019.03.033.043C1288.987,281.438,1295.412,287.079,1296.3,293.1Zm-4.107-36.278c-2.928.233-5.79,3.874-7.327,7.38-1.671,3.813-1.741,7.131-.191,9.1a22.349,22.349,0,0,1,2.446,3.926,29.123,29.123,0,0,0-9.972-2.661,15.375,15.375,0,0,1-12.691-8.67,18.024,18.024,0,0,1,3.1-4.567,1.286,1.286,0,0,0,.374-.652l1.672-7.407.134-.076a14.374,14.374,0,0,1,7.161-1.834c.339,0,.68.011,1.03.034l.036,0c.224.013.422.033.625.051.145.009.294.027.443.043.257.03.506.063.746.106l.031,0,.052.008c.174.019.351.048.53.079.213.039.436.1.653.142.385.081.771.158,1.15.259.54.138,1.091.29,1.667.468.725.229,1.43.487,2.122.749l1.188.461c.328.124.648.261,1,.409l.035.015.053.023c.7.3,1.36.594,2.018.889l.089.04c.588.254,1.157.51,1.706.757l.237.106c.065.03.129.056.194.083.084.038.165.072.248.108l.05.023C1292.5,256.674,1292.277,256.811,1292.192,256.818Zm10.178,6.83c-2.55,4.138-1.445,8.619-.2,11.484-.132-.033-.252-.071-.388-.1-.19-.043-.366-.1-.547-.147-.964-1.108-4.8-6.576,2.144-17.15.536-.4,1.045-.827,1.512-1.252A16.819,16.819,0,0,1,1302.37,263.647Zm-3.9-3.658a6.943,6.943,0,0,0,.712-.128c-2.576,5.124-2.755,9.078-2.161,11.888-.031-.063-.071-.122-.1-.187C1295.151,267.688,1297.568,261.893,1298.466,259.989Zm11.783,15.2c.193,1.023-.556,2.337-1.26,3.275a13.186,13.186,0,0,0-3.266-2.105,13.851,13.851,0,0,1-2.272-7.906,8.5,8.5,0,0,0,4.075,4.536,6.038,6.038,0,0,0,.987.537C1310.061,274.193,1310.2,274.945,1310.249,275.192Zm-1.659-9.542a18.155,18.155,0,0,0-2.1,3.089,7.125,7.125,0,0,1-.941-5.557,17.834,17.834,0,0,0,1.945-8.984l.1.071c.175.114.364.254.58.411l.589.441c.12.094.247.192.41.329l1.1.919c.015.013.035.015.051.028.581.5,1.237,1.076,1.994,1.771C1312.216,261,1310.295,263.464,1308.59,265.65Zm5.849-11.992c-.639.09-1.662.232-2.906.4a28.891,28.891,0,0,0-2.717-2.055c-.042-.025-.086-.059-.124-.082-.061-.04-.119-.077-.176-.113l-.091-.057-.071-.043a4.76,4.76,0,0,0-.449-.243c-.061-.03-.113-.046-.171-.071-.074-.033-.147-.063-.216-.089a2.125,2.125,0,0,0-.446-.118c-.025,0-.059-.02-.082-.023a1.266,1.266,0,0,0-.523.082h0a1.278,1.278,0,0,0-.443.28c-.007.008-.02.01-.028.018s-.052.057-.084.094l-.007.009-.014.015c-.026.033-.058.072-.085.106-.01.014-.021.025-.032.039s-.036.043-.054.066c-.117.153-.318.386-.567.67a26.14,26.14,0,0,1-2.572,2.529c-1.652.148-2.963.235-4,.268a10.385,10.385,0,0,1-3.542-.961c-.253-.1-.523-.22-.785-.332l-.113-.051c-.222-.091-.444-.184-.668-.283-.452-.2-.914-.405-1.393-.62-.659-.3-1.353-.605-2.067-.915l-.245-.106-.515-.223-.06-.025c-.367-.157-.733-.313-1.2-.495-.073-.033-.148-.065-.206-.086l-.256-.1-1.338-.509c-.514-.178-1.026-.358-1.562-.528h-.005l-.005,0-.8-.234c-.279-.08-.557-.16-.835-.227l-.082-.022h0c-.047-.013-.1-.023-.141-.034-.082-.022-.166-.042-.247-.061-.529-.134-1.068-.256-1.642-.361l-.092-.014-.051-.011-.149-.024c-.139-.022-.28-.043-.417-.056-.04-.008-.086-.011-.127-.018-.282-.047-.534-.081-.754-.106-.369-.042-.753-.077-1.172-.1a17.677,17.677,0,0,0-2.679.013,17.054,17.054,0,0,0-7.631,2.5h0l0,0c-.434.27-.877.514-1.319.744-1.692-.016-3.509-1.991-4.471-4.81-1.19-3.483-1.057-8.542,3.229-11.335,8.921-5.812,5.916-12.185,5.159-13.5a1.231,1.231,0,0,0-.122-.191,1.282,1.282,0,0,0-1.8-.242,1.342,1.342,0,0,0-.3,1.715c.718,1.23,2.53,5.6-4.336,10.068-5.522,3.6-5.745,9.96-4.257,14.315a11.115,11.115,0,0,0,3.575,5.309c-.246.065-.487.125-.748.167-.238.044-.477.076-.744.1-.226.022-.454.046-.71.046-.24.006-.472,0-.7-.018l-.254-.02c-.143-.014-.282-.034-.421-.056l-.069-.014-.383-.07c-.127-.028-.252-.059-.375-.094l-.118-.037c-.1-.032-.178-.056-.218-.065-.171-.058-.342-.12-.509-.191-.074-.034-.149-.067-.214-.1a1.237,1.237,0,0,0-.178-.085,2.8,2.8,0,0,1-.433-.222c-.216-.125-.429-.266-.639-.416-.036-.028-.073-.053-.115-.086-.175-.13-.349-.268-.519-.416-.038-.032-.076-.063-.115-.1-.21-.186-.419-.384-.624-.6a12.42,12.42,0,0,1-.824-.957c-.024-.03-.048-.058-.071-.089s-.039-.059-.061-.087a14.449,14.449,0,0,1-.848-1.237c-.018-.028-.032-.056-.049-.084-.2-.332-.4-.692-.6-1.073q-.253-.484-.476-.972c-.271-.594-.529-1.215-.77-1.866-.019-.053-.035-.1-.054-.156-.219-.608-.421-1.239-.609-1.884a28.859,28.859,0,0,1-.775-3.352,1.331,1.331,0,0,0-.084-.247,1.284,1.284,0,0,0-.064-.187l0-.005a1.277,1.277,0,0,0-.963-.629c-.052-.006-.1-.028-.15-.029l-.1,0c-.837-.043-7-.627-10.189-8.366a1.289,1.289,0,0,0-.728-.71,1.271,1.271,0,0,0-1.017.044l-.034.015c-.359.175-.711.333-1.057.482-.146.065-.281.118-.425.176-.232.1-.463.189-.689.273-.149.055-.3.105-.443.156-.267.092-.533.185-.79.259l-.034.011c-.351.1-.692.189-1.022.258-.176.037-.344.066-.5.095l-.144.025c-.185.032-.37.053-.576.078a5.933,5.933,0,0,1-4.572-1.089c-1.931-1.551-2.611-4.405-2.84-6.528a17.891,17.891,0,0,1-.1-2.657,1.284,1.284,0,0,0-1.477-1.347c-.093.014-9.073,1.349-14.973-2.725-3.125-2.171-3.935-4.729-4.793-7.438-.153-.486-.314-.977-.485-1.468a35.037,35.037,0,0,0,14.96,2.387c3.785-.244,5.421,1.347,7.008,2.884,1.347,1.306,2.572,2.29,4.167,2.29,1.678,0,3.767-1.094,6.832-4.056a1.285,1.285,0,0,0,.275-1.455c-.519-1.142-12.9-27.942-28.192-25.986a48.867,48.867,0,0,1-11.1.332c.62-.092,1.343-.216,2.16-.357,7.02-1.208,20.085-3.453,29.845,3.194,2.3,1.561,4.32,4.05,6.369,7.828l.012.015c.99,1.815,1.9,3.747,2.777,5.617,1.026,2.18,1.994,4.239,3.069,6.1,3.751,6.537,10.542,10.658,11.725,10.706h.054a1.265,1.265,0,0,0,.391-.077c.02-.006.044-.005.065-.013a1.251,1.251,0,0,0,.372-.229.451.451,0,0,0,.044-.029,1.3,1.3,0,0,0,.222-.3c.02-.034.05-.06.068-.1a1.247,1.247,0,0,0,.12-.487,1.282,1.282,0,0,0-1.051-1.315,25.6,25.6,0,0,1-9.784-9.441c-1.024-1.77-1.969-3.781-2.971-5.91-.4-.857-.815-1.727-1.237-2.6-.13-.267-.266-.53-.4-.8-.233-.468-.459-.939-.7-1.4l.052-.038a20.791,20.791,0,0,1,2.487-1.538l.046-.023c.281-.146.568-.281.858-.406.089-.039.179-.073.269-.11.214-.087.426-.167.64-.238.149-.049.294-.091.437-.13.163-.044.325-.084.485-.115s.291-.054.429-.071a4.735,4.735,0,0,1,.493-.03c.112,0,.227-.006.332,0a2.826,2.826,0,0,1,.672.132c.019.006.042.008.06.014a1.291,1.291,0,0,0,1.507-.472c.2-.284.387-.544.58-.815s.383-.543.572-.8.383-.509.574-.761c.234-.309.47-.619.7-.91.12-.152.239-.3.36-.444.342-.419.681-.827,1.016-1.208l.068-.077q.6-.678,1.194-1.281h0c.324-.328.64-.628.955-.917.207-.189.415-.376.642-.567.076-.072.163-.135.244-.2a41.691,41.691,0,0,1,11.8,3.566,14.583,14.583,0,0,0-8.114,4.986c-4.61,5.728-3.625,13.644-3.581,13.978a1.284,1.284,0,0,0,1.271,1.115,1.285,1.285,0,0,0,1.273-1.452c-.009-.071-.892-7.15,3.036-12.032,2.159-2.684,5.418-4.226,9.685-4.585l.009,0a3.343,3.343,0,0,1,1.6,2.37c0,1.515-.475,2.272-2,2.272a2.509,2.509,0,0,1-.539-.052,1.707,1.707,0,0,0,.424-1.129,1.78,1.78,0,0,0-1.785-1.784,1.7,1.7,0,0,0-.847.218,1.641,1.641,0,0,0-.974,1.468c0,.128-.033,3.139,3.618,3.139a3.245,3.245,0,0,0,3.168-3.8,2.982,2.982,0,0,0-.879-1.6,31.2,31.2,0,0,1,7.19,6.926,1.27,1.27,0,0,0-.835.41c-2.521,2.8-15.065,6.98-19.687,8.354a1.284,1.284,0,0,0,.366,2.514,1.266,1.266,0,0,0,.366-.054c1.771-.525,17.4-5.252,20.864-9.1a1.27,1.27,0,0,0,.182-.309c.2.319.4.651.59.982-2.224,4.341-4.17,9.066-4.61,12.965a1.283,1.283,0,0,0,1.131,1.419,1.125,1.125,0,0,0,.145.009,1.284,1.284,0,0,0,1.275-1.139c1.045-9.245,11.836-24.456,11.945-24.609a1.235,1.235,0,0,0,.093-.21c.017-.035.05-.059.063-.1a13.268,13.268,0,0,1,6.546-6.9c.28-.129.582-.239.884-.352.127-.047.242-.1.372-.148a14.219,14.219,0,0,1,4.592-.722c9.036,0,9.83,11.73,9.86,12.228a1.283,1.283,0,0,0,.98,1.173,7.484,7.484,0,0,1,3.766,2.623l.015.018a7.276,7.276,0,0,1,.617.975l.009.014c1.276,2.431,1.271,5.674-.009,9.659-.058-.034-.117-.061-.174-.095q-.463-.275-.94-.516c-.1-.049-.2-.1-.294-.151-.132-.063-.265-.122-.4-.181-.073-.034-.156-.071-.252-.113-.061-.023-.123-.044-.281-.118-.03-.013-.066-.024-.1-.035-.079-.032-.156-.066-.234-.095-.053-.02-.109-.035-.162-.056l-.156-.052c-.066-.023-.12-.046-.19-.07s-.163-.052-.244-.077c-.177-.056-.356-.111-.536-.162-.14-.039-.282-.073-.424-.109-.051-.013-.1-.027-.152-.039-.17-.04-.341-.081-.511-.116l-.015,0c-.144-.029-.283-.056-.416-.081-.1-.019-.213-.034-.318-.051-.34-.054-.686-.095-1.034-.128-.124-.013-.246-.032-.371-.041h-.018c-.569-.042-1.149-.052-1.737-.041-.121,0-.244.013-.367.018-.475.018-.953.049-1.44.1-.156.016-.312.039-.47.06-.263.034-.524.056-.791.1-.194.033-.386.082-.578.119s-.409.082-.615.127c-.471.1-.939.216-1.408.346-.088.024-.175.039-.265.065-.028.005-.054.016-.081.023-.01,0-.02,0-.031,0-.05.015-.1.035-.152.051h-.009c-.142.038-.294.09-.441.135l-.267.082c-.035.013-.067.02-.1.033-.121.04-.242.09-.365.133-.294.1-.588.205-.884.316-.194.073-.386.142-.577.218-.019.008-.038.013-.056.02-.308.122-.606.243-.931.385-.1.046-.2.1-.3.142-.4.181-.805.373-1.2.568-.116.058-.233.113-.349.171s-.207.1-.31.148c-.035.018-.07.039-.1.057a43.557,43.557,0,0,0-5.582,3.476l-.089.067q-.916.67-1.768,1.362l-.144.117c-1.18.963-2.263,1.939-3.222,2.9-.042.042-.079.082-.12.124-.4.4-.769.792-1.121,1.181-.108.118-.21.233-.313.349-.268.305-.519.6-.757.9-.109.135-.223.272-.327.4-.24.31-.457.61-.659.9-.05.072-.116.152-.162.222a38.7,38.7,0,0,1-5.747,6.307c-4.185,3.963-8.513,8.061-8.395,15.194.056,3.345,1,5.442,2.79,6.235a3.669,3.669,0,0,0,.723.225c.054.011.11.02.166.029a4.084,4.084,0,0,0,.612.057c.03,0,.062.009.092.009.014,0,.028,0,.042,0a5.191,5.191,0,0,0,.858-.084c.059-.01.116-.022.176-.034a7.042,7.042,0,0,0,.829-.22c.041-.014.08-.03.119-.044.243-.086.479-.182.711-.286.062-.028.123-.053.183-.082q.357-.169.689-.356c.076-.042.147-.084.221-.127.194-.113.381-.227.556-.339.077-.051.146-.1.219-.147.128-.086.25-.171.364-.252.075-.053.144-.1.211-.152.118-.089.224-.17.32-.246.174-.137.322-.256.41-.333.16-.1.288-.168.437-.257l.051-.03c.185-.108.366-.215.561-.318l.063-.038c.072-.041.158-.092.228-.13.044-.024.085-.042.128-.065.191-.1.367-.182.542-.262a1.177,1.177,0,0,0,.159-.065l.007,0a1.025,1.025,0,0,0,.174-.085l.036-.014c.142-.057.278-.1.413-.147.078-.027.154-.054.249-.081.061-.016.12-.027.181-.04.141-.034.283-.067.423-.087.025,0,.051,0,.076-.008l.025,0c.11-.013.223-.018.334-.022l.091-.005c.1,0,.2-.006.309-.005.185.006.373.018.572.041l.177.019c.211.028.438.063.676.105l.085.014a1.066,1.066,0,0,0,.166.032c.038.009.091.018.124.023l.119.02.682.13c.447.087.949.185,1.505.284.023.005.043.008.067.014a1.439,1.439,0,0,0,.16.027l.062.011.038.008.071.011c.338.058.7.116,1.083.173h.009c1.028.154,2.213.3,3.615.418l.448.03.1.01.573.039c.024,0,.048,0,.073,0,.367.022.729.034,1.085.034.156,0,.3-.018.453-.021.129,0,.267.006.4,0a.276.276,0,0,1,.033,0c.166-.009.324-.033.489-.047s.318-.027.474-.044c.233-.027.464-.056.692-.092.127-.02.251-.048.377-.072s.27-.047.4-.077c.281-.062.553-.139.825-.219.123-.035.249-.067.371-.106.064-.022.13-.04.195-.062a11.968,11.968,0,0,0,1.253-.511l.03-.013,0,0a11.213,11.213,0,0,0,4.919-4.665c.028.029.054.059.082.089.464.486.914,1,1.349,1.52.063.075.126.149.188.225.446.541.883,1.09,1.312,1.634a20.8,20.8,0,0,0,4.37,4.584c.129.085.267.143.4.22.253.149.506.3.765.424.078.035.154.057.232.09a8.521,8.521,0,0,0,1.009.375c.049.014.1.02.147.033a8.044,8.044,0,0,0,1.084.223c.1.014.205.014.309.024.239.022.479.054.719.054.049,0,.1-.011.147-.013s.1.009.146.008l.09.213Z" transform="translate(-1176.742 -166.294)" fill="#745043"/></g></svg>